<?xml version="1.0" standalone="no"?>
<!DOCTYPE svg PUBLIC "-//W3C//DTD SVG 20010904//EN"
 "http://www.w3.org/TR/2001/REC-SVG-20010904/DTD/svg10.dtd">
<svg version="1.0" xmlns="http://www.w3.org/2000/svg"
 width="1280.000000pt" height="1181.000000pt" viewBox="0 0 1280.000000 1181.000000"
 preserveAspectRatio="xMidYMid meet">
<metadata>
Created by potrace 1.15, written by Peter Selinger 2001-2017
</metadata>
<g transform="translate(0.000000,1181.000000) scale(0.100000,-0.100000)"
fill="#000000" stroke="none">
<path d="M9115 11795 c-68 -24 -77 -63 -28 -117 l25 -26 -21 -29 c-12 -15 -27
-60 -34 -98 -15 -76 -27 -104 -64 -149 -49 -58 -63 -100 -63 -184 0 -71 3 -83
30 -123 27 -39 28 -45 13 -54 -60 -37 -64 -45 -70 -150 -4 -68 -12 -114 -25
-145 -25 -54 -20 -121 12 -194 21 -46 22 -60 17 -230 -4 -167 -7 -192 -41
-317 -19 -75 -47 -169 -62 -210 -81 -226 -247 -469 -319 -469 -55 0 -253 120
-358 216 -46 43 -71 58 -127 74 -39 11 -100 29 -138 40 -37 10 -109 44 -161
75 -51 30 -98 55 -103 55 -5 0 -34 25 -63 55 -37 39 -60 55 -79 55 -31 0 -32
4 -6 37 37 47 18 111 -33 114 -56 3 -97 -9 -159 -48 -21 -13 -42 -23 -48 -23
-5 0 -54 33 -107 72 -54 40 -130 91 -169 113 l-71 41 34 49 c18 27 33 57 33
66 0 9 16 37 35 62 41 53 55 87 55 128 0 19 10 37 30 56 47 41 38 99 -20 123
-16 7 -30 16 -30 21 0 16 45 38 114 55 99 25 128 53 134 131 4 56 8 64 53 112
69 73 78 143 24 197 -18 18 -35 24 -70 24 -25 0 -45 4 -45 9 0 5 -12 23 -26
40 -18 22 -35 31 -56 31 -58 0 -118 -92 -118 -179 0 -38 -13 -40 -28 -6 -17
37 -15 70 8 114 56 111 18 201 -67 158 -45 -24 -160 -135 -185 -178 -23 -41
-42 -50 -52 -24 -3 9 -19 15 -41 15 -20 0 -46 7 -58 15 -20 13 -29 13 -73 -2
-50 -15 -52 -15 -81 6 -16 13 -50 25 -74 28 -28 4 -56 16 -77 35 -28 24 -41
29 -75 26 l-42 -3 -10 45 c-19 84 -82 83 -142 -2 -14 -21 -30 -38 -34 -38 -5
0 -16 11 -25 26 -26 39 -65 54 -144 54 -67 0 -73 2 -96 29 -30 36 -112 66
-161 58 -74 -12 -120 -73 -107 -142 12 -66 70 -94 195 -95 52 0 68 -4 73 -16
12 -31 6 -61 -16 -82 -35 -32 -148 -81 -217 -94 -55 -10 -63 -10 -82 8 -27 25
-107 25 -169 2 -57 -23 -209 -144 -230 -183 -8 -16 -23 -36 -32 -43 -10 -7
-18 -21 -18 -30 0 -10 -9 -25 -20 -35 -27 -23 -32 -136 -8 -181 14 -25 -13
-46 -57 -46 -42 0 -61 -24 -70 -87 -5 -40 -15 -62 -44 -95 -78 -89 -82 -131
-18 -192 23 -22 53 -49 65 -58 16 -13 22 -28 22 -59 0 -35 -2 -40 -17 -34 -57
24 -98 34 -178 44 -148 18 -145 19 -201 -49 -27 -33 -53 -60 -57 -60 -12 0
-37 66 -37 98 0 42 -49 111 -123 174 -105 90 -185 118 -329 118 -68 0 -69 0
-89 -35 -24 -39 -28 -41 -154 -54 -73 -8 -92 -13 -107 -31 -27 -34 -23 -81 12
-125 30 -38 39 -65 20 -65 -5 0 -19 19 -31 43 -31 61 -48 77 -84 77 -40 0 -65
-26 -65 -68 0 -40 -23 -62 -65 -62 -47 0 -65 -22 -65 -78 0 -56 18 -85 68
-111 l37 -19 -40 -6 c-61 -10 -89 -28 -95 -61 -5 -28 -7 -29 -51 -26 -39 2
-50 -1 -63 -21 -9 -12 -16 -36 -16 -53 0 -17 -7 -41 -16 -53 -22 -32 -22 -96
0 -121 14 -15 15 -24 7 -40 -14 -26 -14 -64 1 -79 22 -22 -36 -14 -83 11 -71
38 -94 40 -125 14 -23 -20 -28 -34 -32 -83 -5 -78 10 -131 53 -181 l35 -42
-25 -37 c-14 -20 -25 -41 -25 -45 0 -5 -4 -9 -10 -9 -5 0 -14 18 -20 39 -6 22
-26 63 -45 91 -29 43 -35 61 -35 104 0 60 -6 71 -44 86 -36 13 -84 -1 -114
-33 -12 -12 -34 -52 -51 -87 -16 -36 -46 -89 -66 -119 -66 -96 -79 -135 -79
-236 0 -69 5 -103 22 -145 12 -30 22 -69 22 -85 0 -35 -24 -75 -45 -75 -19 0
-73 -48 -89 -79 -7 -14 -17 -55 -20 -91 -14 -128 -51 -182 -222 -321 -141
-114 -170 -129 -319 -164 -143 -34 -166 -45 -238 -113 -90 -85 -103 -92 -170
-92 -73 0 -114 -17 -175 -74 -35 -33 -61 -48 -98 -56 -33 -8 -61 -22 -85 -46
-26 -26 -52 -39 -98 -49 -119 -28 -156 -59 -310 -258 -71 -93 -79 -100 -157
-137 -136 -64 -184 -121 -199 -230 -9 -68 -34 -132 -49 -127 -7 2 -12 37 -14
87 -2 46 -8 90 -14 98 -38 45 -117 -37 -128 -132 -14 -133 22 -385 70 -480 32
-63 30 -80 -13 -109 -13 -8 -30 -29 -37 -46 -10 -26 -10 -35 4 -56 10 -16 26
-25 42 -25 l25 0 -29 -37 c-61 -78 -61 -158 0 -189 43 -22 113 -89 166 -158
42 -55 132 -202 132 -217 0 -3 -12 -4 -27 -2 -37 5 -75 -16 -91 -50 -16 -33
-21 -31 -120 58 -40 36 -82 65 -92 65 -11 0 -30 -10 -41 -21 -30 -30 -22 -96
17 -145 16 -20 43 -58 59 -84 17 -27 100 -124 185 -216 184 -198 236 -263 245
-307 5 -23 35 -59 106 -127 66 -64 104 -110 117 -140 11 -25 32 -56 47 -70 53
-49 94 -160 110 -295 13 -115 56 -196 196 -375 146 -187 179 -273 193 -503 4
-54 13 -126 21 -160 18 -78 8 -102 -59 -138 -27 -15 -54 -35 -59 -45 -6 -10
-12 -64 -15 -119 -4 -116 9 -173 48 -192 31 -16 101 -17 133 -2 21 10 31 6 78
-30 91 -69 249 -106 387 -89 57 7 72 5 110 -13 35 -18 55 -21 104 -16 71 6
104 27 133 83 14 28 31 43 60 54 67 26 82 38 141 111 37 47 69 76 93 85 72 29
87 40 166 120 88 90 112 105 198 123 33 7 79 27 110 48 133 90 209 104 282 52
55 -39 104 -45 247 -30 194 21 237 46 310 182 20 36 69 109 109 162 78 104
165 176 394 327 176 116 183 118 404 150 289 42 354 66 543 197 59 40 126 80
150 89 24 8 111 26 193 39 83 13 186 31 230 41 l80 17 135 -51 c74 -27 180
-60 235 -72 55 -11 138 -37 185 -56 126 -53 155 -60 174 -45 9 8 16 22 16 33
0 30 27 5 35 -32 9 -39 39 -76 69 -84 26 -6 36 -37 36 -111 0 -24 3 -50 6 -59
3 -9 38 -31 78 -50 56 -27 90 -54 153 -119 119 -124 133 -149 142 -249 9 -97
17 -115 67 -153 76 -58 186 -82 232 -49 26 18 30 65 7 84 -19 16 -19 30 -1 30
32 0 66 44 102 132 31 75 45 96 77 117 174 118 187 135 212 301 3 21 21 53 44
80 l39 45 12 -27 c10 -21 10 -31 1 -42 -6 -7 -18 -48 -26 -90 -8 -43 -28 -99
-45 -130 -35 -61 -55 -150 -65 -284 l-7 -93 -69 -34 c-80 -41 -93 -58 -73 -96
31 -61 142 -94 234 -69 27 7 58 26 81 48 33 34 36 43 42 112 8 114 14 121 46
53 40 -84 43 -104 26 -183 -8 -39 -15 -96 -15 -125 0 -48 3 -57 26 -72 23 -15
34 -15 96 -5 38 7 87 21 108 32 49 25 50 25 50 -2 0 -33 29 -76 104 -156 l66
-69 0 -154 c0 -184 4 -195 110 -319 80 -94 93 -104 165 -121 67 -16 102 -34
153 -81 67 -61 116 -72 192 -42 41 17 41 17 118 -19 42 -20 96 -39 120 -43 24
-4 57 -17 75 -30 68 -50 93 -56 222 -52 98 2 126 7 155 23 43 25 70 76 70 131
0 50 7 58 34 39 11 -8 30 -15 42 -15 15 0 25 -9 32 -29 21 -59 90 -62 142 -6
24 25 50 33 50 16 0 -5 -4 -21 -10 -35 -14 -37 2 -70 63 -138 29 -31 68 -75
88 -97 30 -34 42 -41 73 -41 43 0 70 12 109 49 40 36 60 79 53 111 -5 27 -3
28 44 32 65 6 85 21 180 133 64 75 89 97 118 104 20 5 118 15 217 21 99 6 201
16 227 21 86 16 128 48 128 99 0 11 12 32 28 46 27 26 27 26 27 168 0 112 4
148 16 167 25 38 38 85 55 193 21 136 41 178 120 251 l66 61 14 89 c11 67 28
116 69 205 30 64 55 123 55 131 0 26 70 161 117 227 36 51 65 77 142 126 114
74 196 159 211 219 6 23 24 74 40 112 37 91 56 165 75 295 20 137 39 208 70
270 14 27 25 62 25 78 0 16 9 41 20 55 29 36 47 83 64 165 8 39 33 104 56 148
39 73 42 83 37 139 -3 33 -17 102 -32 153 l-27 94 21 22 c34 36 42 80 30 165
-13 93 -27 125 -57 129 -19 3 -26 -5 -44 -47 -40 -97 -42 -69 -22 236 4 52 13
96 25 120 28 55 24 78 -21 127 -33 36 -40 50 -40 84 0 58 -12 82 -74 149 -31
34 -63 77 -72 98 -8 20 -34 58 -58 84 -24 25 -48 61 -54 80 -15 43 -87 127
-152 177 -48 37 -50 40 -50 89 0 69 -17 97 -65 111 -54 14 -65 41 -75 177 -11
170 -57 257 -135 257 -19 0 -39 -8 -49 -19 -18 -20 -18 -20 -39 0 -25 23 -81
25 -117 4 -35 -20 -37 -20 -65 24 -17 24 -33 74 -46 136 -22 108 -42 155 -64
155 -9 0 -20 12 -27 28 -35 87 -71 152 -93 166 -36 23 -31 43 15 66 23 12 50
30 60 40 44 44 9 114 -63 125 -97 14 -141 30 -219 77 -44 27 -104 54 -132 60
-66 15 -73 21 -81 69 -10 61 -40 88 -114 105 -35 8 -87 27 -115 41 -67 33
-173 109 -185 132 -6 10 -10 49 -9 87 1 44 -7 94 -20 139 -12 39 -29 123 -37
188 -9 65 -22 138 -30 162 -14 49 -64 121 -119 174 -20 19 -36 38 -36 42 0 3
21 9 47 12 32 3 53 12 65 27 22 28 12 50 -37 79 -19 11 -35 27 -35 34 0 8 -13
30 -28 50 -16 20 -37 57 -47 84 -10 26 -24 55 -32 65 -12 13 -12 20 -2 37 11
16 11 34 1 88 -26 151 -43 175 -143 208 -61 21 -62 22 -74 68 -14 55 -40 87
-69 87 -18 0 -88 -37 -137 -72 -17 -11 -50 11 -135 89 -25 23 -33 80 -15 98
10 10 15 45 13 82 -1 12 -14 35 -28 52 -24 29 -24 32 -10 53 23 32 21 94 -4
115 -11 10 -20 28 -20 41 0 32 -25 77 -71 127 l-40 43 21 34 c43 71 12 139
-79 166 -35 11 -41 17 -47 48 -3 19 -3 67 0 107 9 86 -5 155 -35 180 -12 9
-25 32 -28 50 -4 20 -16 37 -31 44 -33 17 -145 16 -195 -2z"/>
<path d="M5340 11379 c-30 -5 -125 -13 -209 -17 l-155 -9 -32 -37 c-37 -43
-58 -110 -58 -185 0 -44 4 -57 23 -72 22 -18 26 -18 47 -4 21 13 23 13 29 -5
8 -25 65 -60 98 -60 18 0 36 13 63 45 20 25 48 48 63 51 105 23 163 69 186
147 16 52 21 158 8 156 -5 -1 -33 -5 -63 -10z"/>
<path d="M7819 2996 c-19 -8 -60 -17 -90 -21 -29 -4 -67 -14 -82 -22 -56 -28
-75 -131 -34 -178 17 -20 37 -28 89 -36 87 -14 155 0 228 46 30 19 59 35 65
35 7 0 17 11 23 25 49 108 -70 198 -199 151z"/>
<path d="M9850 1123 c1 -96 24 -158 102 -270 30 -43 74 -112 98 -153 24 -41
54 -87 67 -101 22 -24 23 -27 8 -62 -32 -78 -17 -137 55 -213 27 -29 52 -65
55 -80 3 -16 13 -43 21 -59 8 -17 12 -38 9 -46 -9 -25 23 -43 97 -56 45 -7 80
-20 102 -37 19 -14 55 -31 81 -38 58 -16 92 1 109 52 8 24 22 41 48 55 41 22
58 55 58 113 l0 36 34 -33 c47 -46 74 -40 106 24 21 43 25 65 27 165 2 102 4
115 20 118 28 6 61 41 75 81 18 51 14 278 -5 369 -29 132 -82 197 -161 197
-30 0 -67 -13 -131 -46 -109 -56 -163 -70 -281 -71 -83 -1 -96 2 -174 36 -94
42 -210 71 -315 81 -38 4 -78 9 -87 11 -16 5 -18 -3 -18 -73z"/>
<path d="M9470 790 c0 -11 5 -20 10 -20 6 0 10 9 10 20 0 11 -4 20 -10 20 -5
0 -10 -9 -10 -20z"/>
<path d="M8297 794 c-16 -16 -5 -24 33 -24 l40 0 0 -95 c0 -78 3 -95 15 -95
12 0 15 17 15 95 l0 95 41 0 c28 0 39 4 37 13 -5 13 -168 23 -181 11z"/>
<path d="M8460 727 c0 -9 12 -11 39 -9 32 3 41 0 50 -17 11 -20 9 -21 -24 -21
-55 0 -75 -15 -75 -56 0 -27 5 -37 26 -46 21 -10 31 -9 55 4 16 10 29 13 29 8
0 -6 5 -10 10 -10 17 0 12 126 -6 144 -19 20 -104 22 -104 3z m96 -83 c-3 -9
-6 -20 -6 -25 0 -16 -43 -28 -62 -17 -39 20 -12 58 40 58 27 0 33 -3 28 -16z"/>
<path d="M8642 728 c-21 -21 -14 -57 13 -68 14 -6 36 -14 50 -20 16 -6 23 -15
19 -24 -7 -19 -31 -24 -66 -15 -21 6 -28 4 -28 -6 0 -8 15 -17 35 -21 45 -8
85 16 85 51 0 25 -3 27 -77 56 -37 14 -18 41 26 38 20 -2 38 1 41 7 8 14 -83
17 -98 2z"/>
<path d="M8795 660 c0 -97 20 -112 27 -19 5 63 17 81 53 77 17 -3 20 -12 23
-70 2 -50 7 -68 17 -68 10 0 15 17 17 61 3 69 22 94 56 73 12 -8 18 -27 20
-73 2 -45 7 -61 17 -61 19 0 20 94 2 130 -15 31 -61 39 -87 15 -16 -14 -18
-14 -23 0 -8 18 -67 21 -85 3 -9 -9 -12 -9 -12 0 0 7 -6 12 -12 12 -9 0 -13
-23 -13 -80z"/>
<path d="M9097 733 c-16 -15 -5 -21 28 -16 21 3 41 1 50 -7 24 -20 18 -30 -18
-30 -67 0 -100 -56 -57 -95 14 -12 27 -16 47 -11 15 4 38 7 51 7 20 -1 22 4
22 57 0 78 -18 102 -74 102 -23 0 -46 -3 -49 -7z m93 -92 c0 -28 -38 -53 -62
-40 -21 11 -24 45 -5 52 6 3 24 6 40 6 20 1 27 -4 27 -18z"/>
<path d="M9270 660 c0 -64 3 -80 15 -80 11 0 15 13 15 53 0 63 16 90 51 85 22
-3 24 -7 27 -70 2 -52 6 -68 17 -68 12 0 15 14 15 61 0 78 -11 99 -53 99 -18
0 -38 -5 -45 -12 -9 -9 -12 -9 -12 0 0 7 -7 12 -15 12 -12 0 -15 -16 -15 -80z"/>
<path d="M9470 660 c0 -47 4 -80 10 -80 6 0 10 33 10 80 0 47 -4 80 -10 80 -6
0 -10 -33 -10 -80z"/>
<path d="M9557 733 c-16 -15 -5 -21 28 -16 21 3 41 1 50 -7 24 -20 18 -30 -18
-30 -67 0 -100 -56 -57 -95 14 -12 27 -16 47 -11 15 4 38 7 51 7 20 -1 22 4
22 57 0 78 -18 102 -74 102 -23 0 -46 -3 -49 -7z m93 -92 c0 -11 -9 -26 -21
-34 -28 -20 -59 -10 -59 18 0 26 11 33 53 34 20 1 27 -4 27 -18z"/>
</g>
</svg>
