<?xml version="1.0" standalone="no"?>
<!DOCTYPE svg PUBLIC "-//W3C//DTD SVG 20010904//EN"
 "http://www.w3.org/TR/2001/REC-SVG-20010904/DTD/svg10.dtd">
<svg version="1.0" xmlns="http://www.w3.org/2000/svg"
 width="1280.000000pt" height="961.000000pt" viewBox="0 0 1280.000000 961.000000"
 preserveAspectRatio="xMidYMid meet">
<metadata>
Created by potrace 1.15, written by Peter Selinger 2001-2017
</metadata>
<g transform="translate(0.000000,961.000000) scale(0.100000,-0.100000)"
fill="#000000" stroke="none">
<path d="M10433 9478 c-62 -28 -113 -55 -113 -59 0 -5 27 -9 60 -9 33 0 60 4
60 8 0 13 47 32 77 32 15 0 41 -14 65 -36 44 -39 59 -40 33 0 -13 20 -15 29
-6 40 8 10 8 16 -2 25 -8 6 -17 8 -20 5 -3 -4 -12 5 -18 20 -7 14 -15 26 -18
25 -3 0 -57 -23 -118 -51z"/>
<path d="M10033 9417 c-2 -4 -36 -23 -73 -42 -49 -25 -83 -35 -115 -35 l-46 0
2 -45 c2 -24 0 -48 -4 -51 -3 -4 5 -20 18 -36 14 -16 25 -36 25 -44 0 -9 11
-14 29 -14 16 0 34 -7 41 -15 11 -13 9 -20 -13 -43 -14 -15 -30 -39 -36 -53
-8 -23 -6 -28 15 -38 30 -13 30 -22 2 -48 -50 -44 -138 -15 -124 41 4 16 0 32
-13 47 l-18 23 -17 -32 c-9 -17 -16 -51 -16 -76 0 -25 -5 -57 -12 -71 -10 -22
-17 -25 -68 -25 l-57 0 -13 -55 c-7 -30 -17 -55 -21 -55 -5 0 -6 -7 -2 -16 3
-9 -5 -26 -21 -43 -17 -18 -24 -34 -20 -44 8 -22 -4 -22 -29 0 -16 15 -20 16
-27 3 -33 -57 -36 -54 -35 37 1 96 -6 112 -48 110 -24 -2 -49 -37 -26 -37 5 0
9 -13 9 -30 0 -23 -4 -30 -20 -30 -11 0 -20 5 -20 10 0 6 -4 10 -10 10 -17 0
-11 -19 20 -62 17 -22 30 -45 30 -50 0 -18 -59 -8 -74 13 -14 21 -15 21 -30
-10 -9 -17 -21 -31 -26 -31 -5 0 -19 -19 -31 -42 -12 -24 -30 -53 -42 -65 -19
-21 -19 -24 -4 -41 24 -26 22 -34 -18 -72 -33 -32 -34 -35 -20 -57 22 -32 20
-126 -2 -145 -19 -16 -144 -78 -158 -78 -5 0 -31 14 -58 32 -27 17 -65 33 -83
34 -60 5 -74 19 -74 72 0 46 2 48 43 66 23 11 49 19 59 18 19 -2 35 31 18 36
-7 3 -23 17 -38 33 -16 19 -35 29 -53 29 -19 0 -30 6 -34 21 -6 17 -12 20 -33
15 -15 -4 -44 -9 -64 -12 -46 -8 -53 -25 -22 -55 16 -15 24 -33 24 -57 0 -18
9 -45 19 -58 17 -21 19 -35 14 -94 l-6 -69 48 -3 c47 -3 48 -4 79 -63 l33 -59
-23 -34 -23 -33 37 -34 c49 -45 36 -58 -63 -62 -60 -2 -75 0 -75 11 0 8 5 18
11 21 5 4 9 14 7 23 -2 12 -17 15 -65 16 l-61 1 -23 -61 c-18 -48 -31 -66 -56
-80 -23 -12 -33 -24 -33 -41 0 -28 -22 -74 -44 -92 -27 -23 -18 -39 44 -77 33
-20 60 -42 60 -49 0 -6 13 -24 29 -39 15 -15 33 -45 40 -67 10 -33 15 -38 34
-35 91 19 94 19 117 -19 28 -45 19 -55 -25 -31 -22 12 -45 17 -63 13 -19 -4
-40 1 -62 14 -26 16 -38 18 -55 11 -15 -7 -26 -7 -32 -1 -6 6 -19 6 -35 0 -19
-7 -38 -4 -84 15 -32 13 -69 24 -81 24 -13 0 -23 5 -23 10 0 6 -20 10 -44 10
-25 0 -56 4 -70 10 -21 8 -26 7 -26 -7 0 -9 -7 -25 -17 -35 -9 -10 -14 -19
-12 -21 81 -56 129 -77 129 -58 0 20 36 11 59 -13 20 -21 40 -77 41 -112 0 -6
-17 -22 -39 -36 -34 -22 -41 -24 -62 -12 -13 7 -40 13 -59 14 -26 0 -44 9 -76
41 -42 41 -42 41 -54 19 -10 -19 -13 -20 -28 -7 -9 8 -30 19 -47 24 -17 5 -32
18 -34 29 -2 10 -9 23 -17 27 -8 4 -14 19 -14 32 0 13 -4 27 -10 30 -5 3 -10
14 -10 24 0 10 -9 30 -20 44 -22 28 -25 58 -10 88 8 13 7 25 -2 42 -7 12 -12
24 -13 27 0 3 -9 18 -21 32 -18 23 -30 27 -84 30 -50 2 -65 7 -74 23 -18 32
-34 45 -54 45 -33 0 -82 71 -63 94 7 8 4 15 -10 24 -30 19 -22 32 19 32 29 0
48 -8 79 -34 28 -24 43 -32 50 -25 8 8 25 4 58 -10 26 -12 58 -21 71 -21 12 0
26 -4 29 -10 3 -5 25 -10 48 -10 23 0 59 -5 81 -11 34 -9 41 -8 62 12 19 18
26 20 39 9 8 -7 15 -19 15 -26 0 -21 113 -19 131 2 7 9 37 27 66 40 37 16 56
31 63 49 6 15 19 29 30 32 12 3 20 14 20 26 0 11 7 25 16 32 16 11 18 34 15
138 0 17 -6 27 -16 27 -8 0 -15 7 -15 16 0 8 -5 12 -10 9 -16 -10 -40 15 -40
41 0 21 -5 24 -35 24 -24 0 -35 5 -35 14 0 20 -34 29 -76 21 -30 -5 -40 -1
-71 25 -27 24 -38 29 -44 19 -6 -11 -16 -6 -41 17 -22 21 -47 33 -73 37 -22 2
-63 19 -92 37 -42 26 -58 31 -80 25 -51 -14 -215 -17 -239 -5 -16 9 -27 9 -42
1 -17 -9 -21 -7 -25 11 -4 14 -11 19 -23 14 -12 -4 -29 7 -60 40 l-44 46 -11
-26 c-16 -34 -42 -33 -60 2 l-14 27 -3 -37 c-3 -34 -6 -38 -31 -38 -15 0 -32
5 -39 12 -12 12 -30 8 -114 -24 -33 -12 -68 -65 -68 -102 0 -15 -13 -51 -29
-80 l-30 -53 34 -33 c19 -19 37 -42 41 -52 3 -10 11 -18 18 -18 7 0 27 -15 45
-34 31 -31 33 -38 27 -78 -19 -122 -19 -170 3 -199 12 -15 21 -33 21 -38 0 -6
13 -17 30 -26 19 -10 40 -36 60 -75 31 -62 37 -99 19 -117 -8 -8 -8 -17 1 -33
9 -16 9 -25 -1 -36 -8 -10 -9 -21 -1 -41 6 -16 12 -41 14 -58 3 -25 7 -30 27
-27 14 1 22 -1 18 -4 -4 -4 0 -16 10 -26 15 -17 15 -19 -2 -32 -16 -12 -16
-13 -1 -19 9 -4 16 -17 16 -32 0 -16 6 -25 16 -25 23 0 53 -40 54 -71 0 -26
-27 -59 -48 -59 -6 0 -9 -7 -6 -15 4 -8 11 -15 17 -15 6 0 21 -10 35 -22 13
-13 58 -35 100 -49 67 -22 80 -30 97 -61 17 -33 18 -39 5 -63 -8 -15 -27 -33
-42 -41 -18 -10 -31 -27 -38 -54 -6 -22 -20 -44 -30 -50 -13 -7 -20 -21 -20
-40 0 -16 -5 -32 -10 -35 -8 -5 -7 -11 1 -21 14 -17 -4 -44 -30 -44 -10 0 -22
-14 -30 -36 -7 -20 -28 -53 -45 -73 -47 -53 -96 -132 -96 -154 0 -16 5 -18 33
-14 17 3 42 8 55 12 19 6 22 4 22 -19 0 -15 -5 -36 -10 -47 -9 -16 -7 -19 14
-19 14 0 29 -6 33 -14 12 -20 51 -38 58 -26 8 13 92 13 100 0 3 -5 15 -10 26
-10 14 0 19 -7 19 -27 l0 -28 -90 3 c-75 3 -91 1 -96 -12 -3 -9 -17 -16 -30
-16 -21 0 -24 -5 -24 -35 0 -37 -25 -50 -36 -20 -12 31 -24 14 -24 -34 0 -31
5 -53 15 -61 23 -19 18 -51 -12 -82 -24 -25 -26 -31 -15 -49 9 -14 10 -25 2
-39 -7 -14 -8 -26 0 -39 5 -11 10 -31 10 -46 0 -18 7 -28 25 -35 14 -5 30 -21
37 -35 9 -21 8 -28 -7 -45 l-18 -20 -22 20 c-26 24 -35 25 -35 4 0 -9 9 -18
20 -21 24 -6 25 -22 5 -49 -21 -27 -19 -33 13 -31 26 2 27 0 30 -50 3 -48 1
-53 -18 -53 -30 0 -20 -24 11 -28 19 -2 27 -12 37 -42 6 -22 12 -49 12 -60 0
-34 19 -60 44 -60 13 0 26 -7 30 -15 4 -11 22 -15 75 -15 59 0 72 -3 81 -19
11 -22 50 -18 50 5 0 27 60 16 90 -16 15 -16 37 -30 49 -30 24 0 28 -28 10
-58 -9 -15 -7 -26 13 -58 29 -46 50 -103 42 -115 -3 -5 2 -9 10 -9 10 0 16 -9
16 -24 0 -21 6 -25 43 -31 78 -12 97 -24 97 -61 l0 -34 55 0 c30 0 55 -4 55
-10 0 -6 -27 -10 -60 -10 l-60 0 0 35 c0 39 -3 41 -95 67 -39 11 -51 19 -53
36 -3 17 -10 22 -33 22 -33 0 -39 16 -9 25 26 8 21 29 -22 100 -29 48 -30 51
-15 78 16 26 15 27 -7 27 -14 0 -28 9 -35 24 -18 32 -62 52 -73 33 -7 -14 -66
-44 -71 -36 -1 2 -7 13 -13 24 -9 17 -23 20 -83 23 -39 2 -71 7 -71 12 0 15
-48 12 -81 -6 -22 -11 -29 -20 -24 -32 18 -44 17 -51 -16 -71 -19 -12 -37 -17
-43 -12 -23 18 -77 -1 -97 -33 -27 -45 -24 -55 21 -62 23 -4 40 -12 40 -20 0
-19 -49 -54 -77 -54 -13 0 -31 -6 -39 -14 -7 -8 -32 -17 -54 -21 l-40 -7 0
-64 c0 -51 -4 -68 -20 -84 -11 -11 -20 -25 -20 -31 0 -8 -5 -7 -15 1 -12 10
-21 10 -41 1 -14 -6 -34 -11 -44 -11 -11 0 -25 -10 -31 -22 -24 -45 -80 -65
-93 -33 -3 8 -10 15 -16 15 -13 0 -13 -57 0 -65 6 -3 10 -23 10 -43 0 -27 9
-48 30 -74 34 -41 48 -109 36 -172 -5 -28 -17 -43 -47 -63 -43 -28 -46 -46
-10 -51 21 -3 22 -7 16 -40 -4 -20 -7 -41 -8 -47 -1 -5 3 -9 8 -10 6 0 15 -4
22 -8 11 -7 53 35 53 53 0 14 33 23 105 31 39 4 90 10 115 14 44 7 153 -16
165 -34 2 -5 33 -14 67 -21 35 -7 67 -17 72 -21 14 -12 83 -11 91 1 11 17 73
12 84 -7 10 -17 12 -17 25 0 18 23 33 21 52 -8 l16 -24 22 26 c22 25 25 26 67
15 28 -7 47 -8 53 -2 16 16 38 12 62 -11 l22 -20 6 26 c4 14 2 34 -4 45 -15
28 -1 115 23 146 17 22 25 25 61 20 124 -17 136 -18 136 -7 0 6 -11 16 -25 21
-14 5 -28 18 -31 27 -3 10 -16 42 -30 71 -27 60 -33 139 -10 148 8 3 24 0 36
-6 24 -13 68 10 121 62 36 36 35 62 -4 66 -36 4 -35 22 2 22 22 0 31 -6 41
-30 12 -29 11 -33 -16 -61 -16 -17 -49 -44 -73 -61 -38 -25 -48 -28 -68 -19
-13 6 -26 11 -28 11 -13 0 -2 -86 15 -120 11 -22 20 -48 20 -59 0 -33 32 -43
75 -25 25 10 41 12 47 6 12 -12 64 3 91 26 16 14 21 14 51 -1 30 -14 36 -14
55 -1 29 21 50 11 89 -41 27 -37 32 -53 32 -100 l0 -55 54 0 c30 0 58 5 61 10
14 22 41 9 54 -25 9 -26 18 -35 35 -35 19 0 25 -8 36 -55 l13 -55 48 0 c29 0
49 -5 52 -12 4 -10 7 -10 18 -1 10 10 16 9 31 -4 17 -16 21 -14 56 20 28 27
46 37 70 37 22 0 32 -5 32 -15 0 -8 18 -28 41 -44 34 -25 44 -28 59 -19 10 7
17 15 14 19 -11 18 15 16 32 -2 14 -16 26 -19 51 -14 20 4 33 2 33 -5 0 -5 7
-10 15 -10 8 0 15 5 15 10 0 6 18 10 40 10 22 0 40 -4 40 -10 0 -5 17 -10 38
-10 21 0 47 -7 58 -15 25 -19 48 -19 64 0 7 8 21 15 32 15 17 0 19 -6 16 -47
-3 -44 -6 -50 -40 -68 -46 -24 -49 -45 -8 -45 38 0 39 -18 4 -59 -14 -17 -21
-31 -15 -31 6 0 22 -17 36 -37 29 -44 33 -104 11 -158 -15 -35 -16 -35 -76
-35 l-61 0 -19 -43 c-13 -30 -30 -48 -55 -60 -30 -14 -35 -21 -35 -52 0 -29 3
-34 20 -32 11 2 23 6 26 10 14 14 24 6 24 -19 l0 -26 40 36 c27 24 50 36 70
36 28 0 30 -2 30 -38 0 -35 -3 -39 -50 -61 -62 -29 -68 -38 -41 -57 27 -20 27
-32 -3 -45 -17 -8 -33 -8 -55 -1 -29 10 -81 -2 -81 -19 0 -15 28 -28 65 -31
30 -2 42 -9 50 -25 5 -12 22 -25 37 -28 36 -8 35 -17 -3 -34 -26 -11 -29 -17
-24 -41 8 -37 -11 -48 -39 -21 -25 23 -36 19 -36 -14 0 -11 -5 -26 -12 -33 -9
-9 -9 -15 0 -24 7 -7 12 -25 12 -40 0 -23 -4 -28 -25 -28 -19 0 -28 -8 -39
-33 -7 -17 -11 -35 -9 -40 10 -18 85 -47 122 -47 31 0 43 -6 59 -27 19 -26 22
-27 46 -13 20 10 29 11 38 2 7 -7 22 -12 35 -12 13 0 23 -6 23 -14 0 -14 29
-26 66 -26 11 0 31 -11 44 -25 13 -14 35 -25 49 -25 19 -1 34 -12 55 -42 24
-35 30 -39 38 -25 6 11 22 17 44 17 33 0 44 8 78 55 14 20 15 20 60 -3 32 -15
65 -22 105 -22 40 0 63 -5 71 -15 17 -20 89 -19 156 2 50 15 55 15 72 0 14
-13 37 -17 90 -17 61 0 74 -3 84 -20 16 -26 48 -25 93 1 33 20 53 21 99 3 11
-4 19 2 26 20 12 32 59 37 67 7 6 -22 33 -17 33 5 0 17 39 18 75 2 16 -7 25
-19 25 -33 0 -32 25 -51 45 -35 9 8 27 10 47 5 18 -4 62 -9 98 -12 54 -4 70
-10 95 -33 56 -51 81 -57 146 -32 30 12 45 40 29 56 -18 18 -11 26 25 26 27 0
35 4 35 18 0 9 3 26 6 37 4 17 -4 25 -41 43 -52 25 -163 97 -212 137 -29 24
-33 33 -33 74 0 35 -5 53 -20 66 -14 12 -18 25 -14 41 4 13 2 24 -4 24 -5 0
-13 11 -16 25 -4 14 -13 25 -21 25 -8 0 -15 7 -15 15 0 8 -4 15 -9 15 -4 0
-25 11 -46 25 -35 24 -39 25 -55 10 -17 -15 -21 -15 -58 9 -39 24 -40 27 -31
58 5 18 9 44 9 57 0 13 7 32 16 42 10 11 16 43 19 100 6 147 22 190 59 160 10
-9 24 1 65 43 28 30 51 60 51 66 0 7 7 10 15 6 24 -9 34 25 18 62 -11 27 -19
33 -41 32 -72 -5 -90 7 -73 48 7 17 19 33 27 36 25 10 15 25 -48 67 -33 23
-77 56 -97 73 -46 41 -95 43 -114 7 -16 -33 -26 -34 -64 -11 -28 17 -31 23
-26 54 5 31 2 36 -25 50 -35 18 -68 21 -77 6 -15 -25 -25 -5 -25 53 0 46 5 68
20 87 26 33 25 37 -9 45 -40 9 -55 28 -42 54 17 31 13 70 -9 98 -11 14 -20 36
-20 49 0 13 9 33 20 44 22 22 27 56 9 62 -13 4 10 57 35 77 12 10 22 5 58 -32
63 -65 84 -74 113 -47 20 19 22 25 10 36 -7 8 -21 36 -30 63 -10 31 -24 52
-36 56 -38 13 -18 35 41 45 l35 6 -1 66 c-2 65 -1 67 24 70 38 4 132 133 132
181 0 34 22 36 55 3 24 -24 25 -24 48 -6 13 10 31 36 41 58 25 56 88 81 117
46 11 -14 14 -13 26 10 19 36 78 36 129 1 23 -16 51 -25 75 -25 21 0 41 -4 44
-10 8 -13 85 -13 85 -1 0 6 -4 13 -10 16 -5 3 -10 15 -10 27 0 19 4 20 48 14
27 -3 75 -13 107 -21 65 -17 75 -12 75 35 0 15 5 31 12 38 8 8 8 15 -2 27 -11
13 -7 15 30 15 39 0 42 2 36 23 -8 32 42 54 84 37 38 -16 63 -7 55 20 -5 15
-2 20 12 20 14 0 18 8 18 32 0 28 6 36 43 56 41 23 44 23 62 7 10 -9 21 -27
24 -41 6 -24 41 -34 48 -14 2 5 32 13 68 17 l65 8 3 37 c3 35 6 38 60 58 67
25 142 92 142 128 0 31 -25 77 -51 96 -20 14 -25 13 -58 -10 -30 -20 -48 -24
-112 -24 -94 0 -137 16 -155 59 -17 40 -42 40 -79 1 -37 -38 -91 -41 -122 -7
-40 43 -62 89 -56 118 4 23 -1 33 -26 55 -17 14 -31 31 -31 38 0 7 -12 23 -26
37 -24 22 -25 29 -21 84 3 33 9 72 12 87 6 23 3 29 -24 42 -29 15 -31 21 -31
67 l0 51 -40 -78 c-22 -44 -46 -87 -53 -96 -11 -14 -125 -62 -197 -84 -9 -2
-28 13 -47 41 -26 34 -33 54 -33 89 l0 45 55 20 c68 26 68 26 90 1 23 -26 35
-17 35 26 0 19 9 52 20 74 28 55 26 78 -10 98 -16 9 -30 23 -30 31 0 11 -4 11
-18 -2 -10 -10 -32 -17 -48 -17 -17 0 -59 -16 -94 -35 -91 -49 -105 -47 -134
18 -12 28 -35 67 -50 85 -23 26 -26 35 -16 47 7 8 21 15 31 15 13 0 19 7 19
23 0 29 -18 69 -69 159 -14 25 -14 31 -1 54 8 15 24 32 35 38 11 6 22 12 24
13 2 1 -4 14 -13 27 -10 17 -16 47 -16 87 0 57 -1 61 -20 56 -16 -4 -20 -1
-18 13 3 18 -54 116 -81 138 -9 7 -16 18 -16 25 0 7 -11 12 -25 12 -19 0 -27
8 -40 45 -9 25 -26 64 -38 87 -12 23 -22 50 -22 60 -1 39 -40 103 -75 124 -30
18 -35 26 -35 58 0 29 -7 44 -35 71 -26 25 -35 42 -35 67 0 23 -10 44 -34 71
-20 22 -40 58 -47 85 -7 30 -19 52 -33 59 -11 6 -42 32 -68 57 -37 36 -49 55
-54 89 -4 24 -13 49 -20 57 -8 7 -14 23 -14 34 0 11 -6 26 -13 33 -22 22 -37
55 -37 82 0 14 -4 27 -9 30 -5 4 -19 26 -31 50 -16 34 -27 46 -48 48 -21 2
-28 9 -30 32 -3 25 -1 28 19 23 15 -4 27 1 40 16 15 18 18 40 19 125 0 56 4
102 9 102 14 0 31 58 31 106 0 24 -9 66 -20 94 -27 70 -26 80 21 141 33 45 39
59 34 84 -3 17 -9 56 -13 88 -6 47 -13 62 -36 81 -21 16 -27 28 -22 42 5 16 0
23 -19 32 -23 11 -27 9 -37 -13 -13 -29 -44 -33 -52 -7 -7 20 -56 71 -56 58 0
-5 -7 -3 -15 4 -8 7 -15 23 -15 36 0 20 -5 24 -29 24 -16 0 -34 -7 -41 -15 -7
-8 -24 -15 -39 -15 -21 0 -31 9 -50 46 -19 36 -22 47 -12 54 25 15 -2 35 -47
35 -24 0 -46 -3 -49 -8z"/>
<path d="M10184 9396 c-10 -27 0 -35 25 -22 l24 14 -21 11 c-18 10 -23 9 -28
-3z"/>
<path d="M1920 8795 c0 -3 7 -19 15 -35 14 -27 14 -29 -6 -35 -18 -6 -20 -13
-16 -40 4 -21 1 -38 -7 -44 -19 -16 -66 41 -66 79 0 36 -29 43 -32 8 0 -13 -2
-29 -2 -36 -1 -8 -17 -23 -36 -34 -23 -13 -28 -18 -13 -15 16 4 31 -4 52 -28
16 -18 37 -35 47 -37 12 -2 20 -13 22 -32 3 -28 2 -29 -30 -23 -18 3 -42 9
-53 13 -16 6 -14 1 9 -24 24 -26 27 -34 16 -47 -19 -22 -53 -18 -80 10 -13 14
-25 23 -28 20 -2 -2 -25 7 -51 19 -38 20 -50 22 -68 12 -36 -19 -13 -40 35
-34 34 5 44 2 61 -18 22 -25 28 -78 11 -89 -5 -3 -10 -11 -10 -16 0 -6 5 -7
10 -4 18 11 11 -41 -8 -58 -10 -10 -35 -17 -54 -17 -20 0 -41 -7 -48 -15 -6
-8 -21 -13 -32 -12 -30 3 -34 -21 -6 -32 13 -5 36 -23 52 -40 20 -20 39 -31
58 -31 27 0 28 -2 28 -48 0 -42 4 -52 38 -85 21 -20 48 -37 60 -37 16 0 22 -6
22 -23 0 -34 46 -54 70 -32 13 12 19 13 22 4 3 -9 12 -9 40 1 30 11 42 11 64
2 19 -9 30 -10 39 -2 9 8 15 8 20 0 3 -5 19 -10 35 -10 15 0 30 -6 33 -12 3
-9 13 -6 36 10 29 21 33 21 59 8 26 -13 31 -13 45 1 15 15 18 15 35 0 25 -23
84 -7 100 28 12 26 26 32 37 15 3 -5 22 -10 41 -10 30 0 34 3 34 25 0 14 9 30
20 37 11 7 20 20 20 28 0 9 7 25 15 36 12 19 12 24 0 40 -8 11 -15 27 -15 37
0 10 -8 17 -20 17 -22 0 -27 29 -9 47 16 16 17 93 2 93 -17 0 -17 44 0 70 10
17 9 22 -2 29 -10 6 -21 0 -38 -20 -28 -33 -69 -39 -88 -13 -11 15 -14 15 -43
0 -17 -9 -42 -16 -56 -16 -23 0 -25 2 -16 26 14 35 12 42 -5 20 -8 -11 -15
-27 -15 -36 0 -30 -22 -42 -42 -23 -22 20 -24 71 -3 79 17 7 20 50 5 59 -6 4
-17 2 -24 -4 -7 -6 -15 -9 -18 -6 -2 3 -15 -6 -28 -20 -13 -14 -32 -25 -42
-25 -15 0 -18 8 -18 44 0 60 -15 66 -40 16 -21 -40 -60 -57 -60 -25 0 27 -28
16 -50 -20 -25 -40 -26 -40 -46 -21 -19 19 -18 43 2 54 13 7 16 19 12 56 -5
43 -4 46 18 46 25 0 27 6 24 52 -1 14 3 29 9 33 18 10 13 70 -6 87 -24 20 -43
31 -43 23z"/>
<path d="M8854 8772 c-3 -9 -10 -27 -15 -40 -14 -34 -11 -41 16 -54 14 -6 24
-17 21 -23 -2 -7 16 -22 40 -33 54 -27 57 -27 49 -2 -3 10 1 33 10 51 14 26
14 36 5 60 -8 18 -20 29 -32 29 -10 0 -34 7 -54 15 -32 13 -35 13 -40 -3z"/>
<path d="M6638 8719 c-14 -11 -36 -18 -48 -17 -29 4 -38 -18 -11 -27 12 -3 21
-11 21 -16 0 -13 -49 -31 -74 -27 -33 4 -45 -10 -41 -46 4 -26 -1 -38 -21 -57
-25 -23 -26 -23 -39 -5 -16 21 -39 12 -32 -15 3 -10 -3 -25 -13 -34 -15 -14
-18 -14 -30 0 -11 14 -14 14 -24 -1 -11 -14 -13 -14 -25 0 -11 12 -17 14 -27
5 -8 -6 -14 -17 -14 -24 0 -7 -9 -15 -20 -18 -26 -7 -36 -35 -22 -58 7 -10 12
-33 12 -51 l0 -32 -31 30 c-18 16 -33 24 -36 18 -2 -6 -10 -19 -17 -29 -13
-18 -14 -18 -25 3 -7 13 -16 20 -22 17 -14 -9 -11 -40 8 -80 19 -40 12 -56
-15 -32 -18 16 -19 16 -30 -8 -19 -40 -48 -31 -43 13 1 6 -3 12 -9 12 -5 0
-10 -18 -10 -40 0 -37 -2 -40 -24 -34 -25 6 -40 -14 -30 -40 5 -14 -31 -56
-49 -56 -5 0 1 -8 14 -19 35 -28 11 -51 -52 -51 l-49 0 0 -53 c0 -31 -6 -61
-15 -73 -13 -18 -14 -15 -15 29 l0 47 -37 0 c-34 0 -35 -1 -20 -18 21 -23 24
-60 4 -43 -10 8 -17 7 -25 -1 -9 -9 -16 -7 -32 7 -17 16 -20 16 -26 2 -9 -23
5 -39 27 -32 24 8 49 -11 49 -36 0 -14 -9 -19 -42 -21 -42 -3 -68 -28 -29 -28
17 0 21 -6 21 -30 0 -24 -4 -30 -22 -30 -12 0 -34 -12 -49 -26 -23 -22 -30
-24 -48 -14 -27 14 -41 5 -41 -25 0 -15 -7 -26 -20 -30 -22 -7 -26 -20 -10
-30 14 -9 -7 -35 -27 -35 -8 0 -13 -6 -10 -12 2 -7 14 -12 26 -11 16 2 21 -3
21 -22 0 -22 -4 -25 -35 -25 -36 0 -43 -8 -23 -28 13 -13 -5 -42 -26 -42 -20
0 -59 -47 -47 -55 16 -9 13 -41 -4 -55 -12 -10 -18 -10 -31 1 -13 10 -17 10
-24 -2 -6 -9 -5 -15 3 -17 7 -1 13 -18 14 -39 1 -26 -3 -37 -17 -40 -11 -3
-20 -16 -22 -31 -2 -16 -13 -31 -28 -39 -14 -7 -19 -13 -12 -13 18 0 16 -69
-3 -76 -26 -11 -65 5 -65 26 0 30 -15 32 -40 5 -14 -15 -35 -25 -52 -25 -25 0
-28 -3 -22 -25 3 -14 2 -25 -4 -25 -5 0 -15 -13 -22 -29 -8 -21 -20 -31 -38
-33 -24 -3 -27 -7 -24 -37 2 -28 0 -32 -11 -22 -11 8 -18 6 -33 -10 -12 -13
-26 -18 -40 -15 -13 4 -27 0 -34 -9 -7 -8 -19 -15 -26 -15 -8 0 -14 -10 -14
-25 0 -16 -6 -25 -15 -25 -8 0 -15 -7 -15 -15 0 -18 -21 -20 -38 -3 -9 9 -15
9 -24 0 -7 -7 -27 -12 -45 -12 l-34 0 16 -30 16 -30 -36 0 c-20 0 -45 5 -56
11 -26 14 -58 4 -41 -13 7 -7 12 -20 12 -30 0 -14 -8 -18 -35 -18 -28 0 -38
-5 -47 -25 -12 -27 -28 -24 -28 6 0 17 -3 18 -20 7 -15 -10 -22 -10 -32 0 -6
6 -20 12 -31 12 -26 0 -18 -42 11 -55 23 -10 27 -40 5 -40 -7 0 -18 -6 -24
-12 -7 -7 -24 -13 -38 -13 -23 0 -23 -1 -8 -18 16 -18 23 -52 11 -52 -3 0 -14
5 -25 10 -15 9 -19 7 -19 -5 0 -30 20 -55 45 -55 19 0 25 -5 25 -21 0 -19 -4
-21 -35 -16 -43 7 -45 -5 -11 -56 23 -33 23 -36 7 -51 -12 -11 -20 -13 -28 -5
-8 8 -13 7 -18 -2 -5 -7 1 -19 15 -29 15 -11 19 -19 11 -24 -6 -4 -15 -4 -21
-1 -20 12 -10 -12 14 -35 25 -22 32 -23 96 -4 21 6 17 -2 -25 -45 l-49 -51 22
-16 c28 -20 28 -34 -1 -34 -13 0 -29 -6 -35 -12 -10 -10 -17 -10 -34 1 -19 12
-23 11 -35 -5 -7 -10 -13 -27 -13 -38 0 -12 -4 -28 -9 -36 -6 -8 -7 -18 -4
-23 3 -5 13 4 23 21 13 22 25 29 49 29 29 0 31 -2 31 -39 0 -21 -4 -38 -10
-38 -5 0 -10 -11 -10 -24 0 -23 -15 -43 -34 -45 -5 -1 -9 -19 -9 -41 0 -38 31
-90 54 -90 4 0 20 -5 35 -10 l27 -11 -23 -24 c-20 -22 -21 -25 -6 -31 9 -3 23
-1 31 6 13 11 15 8 15 -15 l0 -27 68 6 c109 9 116 10 138 26 12 8 24 25 28 38
8 24 60 62 86 62 8 0 20 10 25 23 14 31 62 36 82 8 11 -17 18 -19 34 -11 10 6
19 21 19 34 0 12 11 33 25 46 29 27 31 46 10 70 -13 14 -10 21 35 65 62 61 80
65 80 19 0 -23 -6 -38 -20 -46 -23 -15 -27 -38 -6 -38 7 0 25 -9 40 -21 22
-18 29 -19 42 -8 9 7 20 22 25 34 5 11 13 27 17 35 5 8 13 24 19 35 5 11 22
21 36 23 18 2 29 12 36 34 15 44 14 122 -4 164 -17 42 -13 53 28 79 44 28 49
79 11 124 -22 26 -25 38 -20 69 17 94 18 114 7 125 -14 14 -15 107 -1 107 6 0
10 33 10 78 0 89 19 131 71 157 26 14 33 14 40 4 6 -11 13 -9 32 9 15 14 36
22 59 22 40 0 62 18 48 40 -6 8 -10 25 -10 38 0 13 -7 36 -15 52 -14 28 -14
30 19 57 39 33 56 77 56 144 0 35 7 58 25 85 14 20 25 50 25 65 0 24 7 32 43
50 62 31 77 48 77 85 0 28 6 38 39 59 22 13 47 41 57 60 16 35 16 37 -5 66
-22 30 -22 31 -4 51 10 12 36 34 58 50 22 16 44 43 50 61 9 27 15 32 40 31 17
0 38 -4 48 -8 14 -7 17 -3 17 27 0 29 5 37 30 47 24 10 33 10 45 0 19 -15 18
-16 34 38 11 39 15 43 37 38 22 -6 24 -4 24 34 0 36 2 40 25 40 20 0 25 5 25
26 0 36 17 64 40 64 31 0 86 -43 96 -75 7 -22 16 -31 36 -33 14 -2 32 -10 38
-18 16 -18 64 -18 80 1 18 22 51 19 57 -5 4 -16 11 -19 32 -13 14 3 26 6 27 7
22 29 54 107 54 130 1 17 7 42 15 56 8 14 14 45 15 71 0 51 13 69 50 69 14 0
42 11 62 25 44 30 73 33 63 8 -13 -33 -10 -37 31 -48 69 -17 106 -69 73 -102
-5 -5 -9 -34 -7 -64 l3 -54 8 40 c5 22 14 51 20 64 15 30 75 71 104 71 13 0
23 6 23 13 0 6 3 22 6 35 6 20 3 22 -30 22 -42 0 -44 6 -14 32 l22 19 -21 21
-22 21 25 19 c28 23 30 34 9 55 -15 15 -50 14 -87 -2 -15 -6 -18 -2 -18 19 0
21 -5 26 -24 26 -14 0 -28 5 -31 11 -9 14 -45 -19 -45 -41 0 -10 -7 -24 -16
-31 -14 -11 -18 -10 -30 6 -16 22 -19 71 -4 80 12 7 14 65 2 65 -11 0 -52 -44
-52 -56 0 -5 -9 -15 -20 -22 -15 -9 -20 -23 -20 -58 0 -38 -3 -45 -17 -42 -10
2 -18 11 -18 20 0 10 -6 23 -13 30 -6 6 -12 28 -13 48 0 19 -3 28 -5 20 -14
-45 -79 -168 -86 -164 -4 3 -8 25 -8 49 0 33 5 47 20 58 22 15 71 105 61 111
-3 2 -18 -4 -33 -15z"/>
<path d="M1710 8694 c0 -11 -6 -15 -20 -11 -11 3 -22 2 -25 -3 -3 -4 9 -10 25
-12 26 -4 30 -1 30 19 0 13 -2 23 -5 23 -3 0 -5 -7 -5 -16z"/>
<path d="M6806 8438 c-16 -12 -45 -24 -65 -27 -36 -6 -36 -7 -43 -66 -18 -149
-21 -161 -44 -188 -13 -16 -24 -36 -24 -46 0 -12 -13 -22 -37 -29 -34 -11 -40
-10 -55 8 -17 21 -38 27 -38 10 0 -5 -22 -10 -49 -10 -28 0 -53 5 -56 10 -3 6
-17 10 -31 10 -20 0 -29 8 -42 38 -8 20 -31 48 -51 60 -33 23 -36 23 -48 6
-25 -34 -16 -61 30 -86 25 -14 43 -32 45 -44 2 -15 25 -30 85 -57 45 -20 88
-37 95 -37 7 0 12 -13 12 -29 0 -17 5 -33 10 -36 6 -3 10 -33 10 -66 0 -46 3
-59 15 -59 10 0 15 -11 15 -35 0 -19 9 -51 21 -72 16 -29 19 -41 10 -55 -6
-10 -11 -42 -11 -71 0 -41 6 -63 25 -91 14 -20 25 -45 25 -54 0 -18 41 -42 71
-42 22 0 32 -33 29 -97 -1 -41 3 -56 20 -73 27 -27 22 -44 -16 -48 -31 -3 -65
-49 -91 -121 -6 -18 -28 -50 -47 -70 -21 -21 -36 -47 -37 -61 0 -18 -13 -33
-47 -56 -42 -27 -47 -35 -50 -73 -3 -33 -8 -44 -28 -53 -18 -9 -27 -9 -36 0
-18 18 -28 14 -28 -11 0 -13 -11 -34 -25 -47 -28 -27 -33 -71 -10 -90 8 -7 15
-25 15 -40 0 -15 -7 -33 -15 -40 -21 -17 -19 -25 10 -38 24 -11 25 -15 25
-110 0 -96 -1 -99 -25 -110 -35 -16 -33 -58 6 -112 28 -38 34 -42 61 -36 22 4
37 1 49 -10 11 -10 28 -15 44 -12 30 6 55 -22 55 -62 0 -39 38 -70 86 -70 33
1 42 6 59 32 25 39 41 45 48 17 l6 -21 23 22 c32 30 86 52 133 54 34 2 40 5
43 26 2 14 11 33 19 42 14 16 17 16 34 -5 10 -12 18 -17 19 -11 0 7 11 15 25
18 14 4 31 18 37 31 12 27 23 31 33 15 7 -12 65 -13 81 -2 6 4 23 30 38 57 14
28 47 77 72 110 41 55 70 107 88 160 6 15 9 16 15 6 5 -7 14 -10 20 -6 8 4 9
11 2 18 -6 8 -5 19 5 31 8 11 14 30 14 41 0 12 8 29 18 39 11 9 25 33 31 54 8
22 26 45 44 57 65 41 36 100 -63 130 -34 10 -78 31 -97 47 -20 15 -41 28 -48
28 -13 0 -25 21 -25 45 0 8 12 15 28 17 22 2 28 8 30 36 2 18 -1 32 -7 32 -6
0 -11 7 -11 15 0 8 -9 15 -20 15 -13 0 -20 7 -20 19 0 11 -12 29 -27 40 -26
19 -26 22 -10 32 22 13 22 29 -1 29 -27 0 -42 20 -42 57 0 18 -6 42 -12 53
-10 16 -10 24 0 40 9 15 10 26 1 41 -8 15 -8 24 0 32 30 30 -21 157 -71 178
-16 6 -28 15 -28 20 0 4 -11 25 -25 45 -31 46 -35 144 -7 193 15 28 16 33 2
58 -9 16 -32 39 -53 52 -20 13 -37 29 -37 36 0 6 -16 26 -35 45 -37 35 -43 58
-23 78 8 8 11 39 9 88 -1 60 2 80 15 95 16 18 16 20 -5 43 -13 14 -45 30 -73
36 -45 11 -49 14 -44 36 8 29 8 29 -28 2z"/>
<path d="M5930 8260 c0 -5 -11 -10 -24 -10 -19 0 -25 -6 -29 -32 -6 -39 2 -57
15 -34 5 9 18 16 29 16 20 0 44 44 33 61 -7 12 -24 12 -24 -1z"/>
<path d="M6160 8094 c0 -44 -1 -46 -25 -40 -23 6 -26 2 -37 -39 -12 -45 -24
-55 -45 -34 -6 6 -20 8 -32 4 -16 -5 -21 -15 -21 -42 0 -34 -1 -35 -32 -31
-18 3 -40 8 -49 12 -13 5 -20 -2 -32 -32 -9 -21 -28 -47 -44 -57 -15 -10 -38
-26 -50 -37 l-21 -20 20 -34 c19 -32 19 -37 5 -67 -17 -35 -49 -68 -84 -86
-16 -8 -23 -22 -25 -54 -3 -40 -6 -43 -55 -67 -43 -21 -52 -30 -53 -51 0 -14
-11 -43 -25 -63 -17 -24 -25 -51 -25 -79 -1 -77 -23 -136 -58 -157 -32 -20
-40 -34 -23 -44 8 -5 18 -52 24 -116 2 -22 -2 -25 -37 -28 -24 -2 -52 -13 -69
-28 -21 -18 -37 -23 -56 -20 -30 7 -40 1 -64 -34 -12 -18 -17 -46 -17 -101 0
-56 -4 -80 -15 -89 -20 -16 -19 -64 1 -81 18 -15 15 -85 -7 -136 -12 -31 -12
-34 14 -61 22 -23 27 -37 27 -79 0 -48 -2 -53 -36 -73 -26 -17 -33 -27 -27
-39 4 -9 9 -54 11 -100 4 -100 -8 -139 -46 -143 -20 -2 -32 -14 -48 -45 -11
-23 -27 -49 -34 -59 -8 -9 -15 -39 -15 -68 0 -41 -3 -51 -18 -54 -12 -2 -20 4
-24 17 -12 48 -23 15 -23 -74 0 -78 3 -95 15 -95 8 0 15 -6 15 -14 0 -7 10
-16 21 -19 18 -5 20 -10 14 -34 -15 -56 -17 -155 -4 -180 10 -18 10 -26 1 -35
-19 -19 -14 -46 13 -64 18 -12 25 -25 25 -48 0 -23 6 -34 23 -41 25 -11 38
-65 15 -65 -26 0 -50 -82 -28 -95 6 -3 10 -14 10 -24 0 -10 7 -24 15 -31 17
-14 20 -75 5 -85 -25 -16 -4 -23 60 -19 38 2 72 -1 75 -6 4 -6 15 -10 26 -10
17 0 19 7 19 58 0 64 11 82 51 82 19 0 26 5 25 17 0 9 14 25 32 36 28 16 37
17 62 7 17 -7 30 -19 30 -27 0 -10 10 -13 38 -11 34 3 37 6 40 37 2 18 14 51
28 72 13 21 24 49 24 61 0 12 10 32 22 45 18 20 20 26 9 33 -12 7 -10 14 7 44
12 20 17 38 11 41 -13 9 -11 56 4 74 7 9 20 35 27 59 11 36 11 49 0 80 -9 26
-10 37 -1 40 18 6 13 22 -7 22 -28 0 -34 11 -16 31 15 17 19 17 46 3 28 -15
31 -14 54 7 13 12 24 33 24 47 0 21 4 23 41 21 34 -3 43 0 54 20 7 13 23 30
36 37 21 11 22 13 7 19 -25 10 -23 52 2 60 31 10 73 65 60 80 -6 7 -7 20 -4
30 6 15 3 16 -24 10 -29 -6 -32 -4 -32 18 0 13 -9 32 -21 43 -14 12 -18 25
-14 41 6 26 2 28 -27 12 -17 -9 -25 -6 -49 17 -16 15 -29 38 -29 51 0 12 -9
38 -20 58 -11 20 -20 37 -20 39 0 2 9 6 20 9 17 4 20 14 20 71 0 81 -1 77 16
101 8 11 14 29 14 42 0 12 5 25 10 28 6 3 10 15 10 26 0 15 -7 19 -35 19 -32
0 -35 3 -35 29 0 38 23 57 52 44 17 -7 32 -5 58 7 19 10 47 23 62 29 19 7 26
15 22 26 -4 9 1 24 10 34 9 10 14 25 10 35 -5 12 0 16 18 16 16 0 29 9 38 25
10 19 16 22 26 14 19 -16 39 -6 39 21 0 24 14 35 58 45 25 5 27 8 27 61 0 49
3 58 35 90 39 39 38 32 35 135 -1 46 3 79 9 83 6 4 11 20 11 35 0 34 15 48 55
53 27 3 30 7 33 41 2 21 -2 45 -9 54 -11 13 -9 14 18 12 20 -2 39 3 51 14 18
17 23 17 44 4 12 -9 37 -17 53 -19 25 -2 31 1 33 20 2 12 -6 34 -18 49 -18 23
-21 39 -19 120 1 71 -2 99 -15 118 -9 13 -16 38 -16 55 0 26 -4 30 -27 30 -25
0 -25 1 -10 18 21 24 22 95 2 112 -8 7 -15 20 -15 29 0 16 -46 42 -147 83 -24
9 -33 19 -33 35 0 17 -12 29 -50 48 -71 36 -80 34 -80 -21z"/>
<path d="M3446 6420 c-4 -14 -8 -28 -7 -32 1 -5 -8 -8 -19 -8 -23 0 -25 -17
-5 -44 10 -13 15 -15 15 -6 0 7 7 21 16 31 9 10 14 30 12 51 -3 32 -3 32 -12
8z"/>
<path d="M2550 6118 c0 -20 -1 -20 -19 -4 -12 11 -21 14 -26 7 -3 -6 -4 -11 0
-11 3 0 1 -9 -5 -20 -11 -21 -1 -27 16 -10 8 8 15 6 24 -5 11 -14 14 -13 24 7
6 13 21 24 33 26 32 5 17 32 -18 32 -23 0 -29 -4 -29 -22z"/>
<path d="M2822 6076 c-8 -19 -8 -26 1 -29 22 -7 -13 -37 -44 -37 -29 0 -46
-14 -29 -25 10 -6 15 -65 5 -65 -9 0 -50 24 -56 33 -4 5 -17 7 -30 5 -19 -2
-25 -10 -27 -37 -2 -18 1 -38 7 -44 19 -19 13 -57 -9 -57 -12 0 -20 -7 -20
-18 0 -9 -10 -22 -22 -27 -14 -6 -24 -21 -26 -38 -2 -15 -12 -32 -23 -38 -16
-8 -18 -13 -8 -25 15 -18 29 -18 29 0 0 15 52 46 77 46 19 0 16 -10 -9 -37
-12 -13 -23 -34 -23 -46 0 -17 -7 -23 -28 -25 -19 -2 -35 -14 -48 -35 -21 -35
-24 -47 -11 -47 5 0 14 11 20 25 13 28 43 33 62 10 17 -21 9 -48 -20 -62 l-25
-13 25 0 c14 0 35 -9 48 -19 23 -20 29 -41 12 -41 -5 0 -10 -6 -10 -13 0 -16
-61 -77 -77 -77 -6 0 -13 -9 -16 -21 -3 -11 -15 -23 -26 -26 -31 -8 -69 -103
-41 -103 6 0 10 9 10 21 0 28 41 22 56 -9 l12 -23 6 25 c8 31 30 34 48 7 10
-14 18 -17 28 -11 9 6 17 5 22 -3 6 -9 10 -8 17 3 8 12 14 12 34 1 19 -10 29
-10 46 -2 19 11 21 9 21 -14 0 -14 3 -25 8 -25 4 0 31 23 60 50 44 43 55 49
71 40 26 -14 38 -13 23 2 -15 15 -15 28 -1 28 22 0 38 33 27 55 -23 45 -51 65
-89 65 -45 0 -109 28 -109 47 0 18 35 16 50 -2 7 -8 19 -15 26 -15 8 0 14 7
14 15 0 9 10 15 26 15 31 0 28 20 -4 35 -13 5 -21 17 -20 25 4 19 64 26 84 9
15 -12 39 0 57 29 4 6 13 12 18 12 6 0 22 8 35 19 21 16 22 20 9 31 -21 18
-19 41 5 47 11 3 20 9 20 14 0 5 11 14 25 19 38 15 33 48 -7 52 -18 2 -32 8
-31 15 5 26 -26 34 -114 30 -48 -3 -100 -7 -115 -10 -27 -5 -28 -3 -28 35 0
34 4 41 28 50 16 6 33 21 38 32 6 14 20 22 40 24 17 2 42 14 55 28 12 13 34
24 48 24 21 0 26 5 27 25 2 21 -2 25 -27 25 -16 0 -29 5 -29 10 0 7 -6 7 -19
1 -23 -13 -105 19 -115 44 -8 23 -31 18 -44 -9z"/>
<path d="M2523 5943 c-16 -6 -17 -33 -3 -33 11 0 26 28 19 34 -2 2 -10 1 -16
-1z"/>
<path d="M2545 5890 c-8 -26 4 -48 16 -29 12 19 11 49 0 49 -5 0 -12 -9 -16
-20z"/>
<path d="M6925 5850 c-3 -5 -37 -10 -76 -10 -66 0 -69 -1 -69 -24 0 -22 -3
-24 -33 -19 -25 4 -37 0 -51 -16 -30 -34 -28 -61 6 -68 21 -4 28 -11 28 -29 0
-12 -4 -26 -10 -29 -20 -12 -11 -80 13 -103 29 -27 33 -27 40 -2 6 24 48 27
66 6 9 -11 10 -20 1 -36 -30 -56 -11 -86 35 -56 29 19 51 21 58 4 4 -10 8 -10
15 1 13 19 75 -4 88 -33 7 -16 20 -22 51 -24 31 -2 44 -8 48 -22 6 -19 7 -19
52 3 34 16 47 19 50 10 6 -16 39 -17 48 -2 4 6 -3 20 -14 31 -25 22 -24 46 1
62 13 8 22 6 37 -9 24 -21 36 -15 27 13 -4 11 -18 23 -31 26 -18 5 -25 13 -25
32 0 14 -7 38 -15 55 -12 22 -13 34 -5 49 8 14 7 25 -2 39 -11 18 -9 24 15 49
29 30 35 60 15 80 -7 7 -41 12 -83 12 -40 0 -76 5 -82 11 -9 9 -20 9 -44 -2
-25 -10 -34 -10 -37 -1 -5 15 -108 16 -117 2z"/>
<path d="M12298 5824 c-29 -15 -41 -64 -16 -64 6 0 22 -9 34 -21 l22 -20 15
43 c8 24 18 51 22 61 6 14 2 17 -21 17 -16 -1 -41 -8 -56 -16z"/>
<path d="M5017 5793 c-3 -4 -1 -19 4 -32 11 -28 33 -16 27 15 -3 19 -23 30
-31 17z"/>
<path d="M6525 5700 c-3 -5 1 -10 9 -10 9 0 16 -8 16 -17 0 -16 1 -16 16 -1 9
9 13 21 10 27 -9 14 -43 14 -51 1z"/>
<path d="M12315 5653 c-9 -27 -21 -59 -26 -72 -12 -30 -8 -34 23 -19 28 13 68
76 68 106 0 18 -18 32 -40 32 -5 0 -16 -21 -25 -47z"/>
<path d="M2500 5669 c0 -5 5 -7 10 -4 6 3 10 8 10 11 0 2 -4 4 -10 4 -5 0 -10
-5 -10 -11z"/>
<path d="M6546 5578 c-27 -21 -29 -21 -42 -4 -7 10 -17 15 -23 12 -16 -10 -9
-55 11 -73 17 -15 18 -15 18 0 0 12 9 17 30 17 21 0 38 9 55 27 39 46 4 60
-49 21z"/>
<path d="M2046 5461 c-4 -6 -14 -7 -23 -4 -9 3 -21 0 -27 -8 -15 -18 -43 -36
-80 -51 l-29 -11 22 -19 c13 -10 30 -18 38 -18 27 0 9 -35 -20 -38 -19 -2 -27
-9 -27 -23 0 -11 -11 -24 -25 -31 -20 -9 -32 -8 -61 8 -20 10 -39 26 -42 34
-9 26 -45 60 -63 60 -25 0 -52 -54 -44 -89 6 -30 -23 -66 -60 -73 -19 -4 -20
-8 -13 -65 1 -7 7 -13 15 -13 7 0 13 -7 13 -15 0 -11 12 -15 45 -15 37 0 45
-3 45 -18 0 -25 -20 -42 -50 -42 -14 0 -40 -9 -59 -21 -32 -19 -32 -21 -16
-39 9 -10 29 -20 43 -22 14 -2 27 -9 30 -15 5 -18 -72 -17 -87 0 -12 15 -71
11 -71 -4 0 -5 -18 -9 -39 -9 -48 0 -71 -8 -71 -24 0 -8 10 -11 28 -8 19 2 33
-3 46 -17 19 -21 19 -21 -15 -21 -19 -1 -44 -9 -56 -19 -29 -24 -29 -34 -3
-26 12 4 26 2 33 -3 7 -6 23 -12 37 -15 l25 -4 -26 -2 c-30 -1 -56 -25 -39
-36 5 -3 15 -3 20 0 6 3 10 -1 10 -9 0 -9 7 -16 15 -16 8 0 15 -9 15 -20 0
-17 3 -18 26 -8 20 9 30 9 45 0 23 -15 62 -15 76 -1 8 8 13 8 17 0 8 -12 56
-15 56 -3 0 4 12 13 27 19 21 10 28 10 35 1 6 -10 10 -10 20 0 15 15 179 17
194 2 13 -13 74 24 74 45 0 8 6 15 13 15 24 0 57 49 57 84 0 20 8 40 20 51 12
10 18 25 15 33 -3 7 0 22 5 32 5 10 11 41 12 69 2 34 7 51 15 51 18 0 16 13
-4 36 -10 11 -23 29 -29 40 -13 23 -69 31 -90 13 -13 -10 -23 -4 -65 37 l-50
50 16 32 c17 34 33 40 53 20 9 -9 13 -7 18 8 13 36 57 74 86 74 15 0 28 5 28
10 0 6 12 10 26 10 19 0 25 4 22 18 -3 13 -14 17 -58 18 -30 1 -62 5 -71 8
-10 4 -20 3 -23 -3z"/>
<path d="M6896 5453 c-4 -5 -26 -13 -49 -18 l-42 -11 -3 -94 c-2 -80 -6 -98
-24 -117 -29 -31 -51 -29 -93 8 -24 21 -35 40 -35 58 0 28 -29 63 -63 75 -11
3 -21 15 -24 26 -7 27 -27 25 -87 -9 -57 -33 -80 -63 -71 -92 4 -11 -4 -38
-19 -66 -20 -38 -50 -152 -43 -160 4 -3 92 20 109 28 10 5 48 9 85 9 40 1 78
7 93 15 31 18 95 18 135 1 25 -11 34 -10 51 1 19 12 26 11 58 -10 19 -14 59
-33 87 -43 28 -10 55 -26 60 -35 5 -9 31 -33 59 -53 40 -29 59 -36 95 -36 25
0 54 6 65 12 15 9 22 10 31 1 8 -8 18 -9 35 -1 27 13 31 30 9 48 -23 19 -19
27 25 52 37 21 39 25 34 58 -9 58 -35 110 -55 110 -18 0 -39 27 -39 49 0 6 9
11 20 11 17 0 20 7 20 40 0 41 -7 49 -28 28 -9 -9 -12 -9 -12 0 0 7 -5 12 -11
12 -7 0 -20 9 -30 21 -16 19 -19 19 -48 5 -40 -21 -58 -20 -71 4 -7 14 -21 20
-45 20 -21 0 -39 7 -47 18 -20 29 -53 43 -67 29 -9 -9 -16 -9 -31 1 -23 14
-24 14 -34 5z"/>
<path d="M4775 5410 c-3 -5 -14 -10 -24 -10 -22 0 -61 -40 -61 -63 0 -12 9
-17 32 -17 17 0 40 -7 50 -17 17 -15 20 -15 43 7 25 23 34 60 15 60 -5 0 -10
11 -10 25 0 18 -5 25 -19 25 -11 0 -23 -4 -26 -10z"/>
<path d="M2211 5397 c-9 -12 -29 -17 -60 -17 -37 0 -53 -5 -69 -23 -12 -13
-22 -28 -22 -34 0 -6 -7 -16 -15 -23 -12 -10 -18 -10 -30 0 -9 7 -17 11 -18 9
-1 -2 -8 -11 -15 -20 -10 -14 -6 -23 29 -58 29 -29 45 -39 53 -31 19 19 106 2
106 -21 0 -5 11 -24 24 -43 23 -35 24 -35 41 -16 10 11 28 20 40 20 18 0 24 7
27 30 3 18 0 31 -9 34 -21 9 -15 36 12 48 28 13 31 34 10 62 -8 11 -15 30 -15
43 0 20 -5 23 -34 23 -24 0 -36 5 -38 17 -3 15 -4 15 -17 0z"/>
<path d="M2974 5273 c-8 -42 -29 -60 -49 -43 -11 9 -19 7 -37 -9 -56 -52 -87
-70 -114 -70 -83 1 -116 -25 -112 -85 2 -31 8 -43 26 -51 12 -5 22 -15 22 -21
0 -6 11 -16 25 -22 29 -13 34 -42 7 -42 -22 0 -52 -34 -52 -60 0 -13 -7 -20
-19 -20 -26 0 -38 -20 -18 -32 9 -5 14 -15 11 -22 -3 -7 2 -16 12 -20 13 -5
14 -9 4 -21 -7 -8 -21 -15 -31 -15 -20 0 -25 -15 -9 -25 18 -11 10 -51 -15
-75 -14 -13 -25 -33 -25 -44 0 -12 -15 -45 -34 -73 -30 -46 -32 -54 -20 -70 7
-10 14 -30 14 -45 0 -18 5 -28 15 -28 8 0 15 -4 15 -8 0 -16 -46 -52 -66 -52
-24 0 -39 -10 -47 -32 -13 -35 -158 -14 -175 25 -6 11 -42 8 -39 -4 1 -6 -6
-16 -16 -22 -15 -10 -21 -8 -33 7 -12 17 -14 17 -14 3 0 -35 -23 -67 -48 -67
-38 0 -92 -22 -92 -37 0 -8 -6 -13 -12 -11 -7 1 -23 -3 -35 -10 -26 -14 -31
-52 -8 -52 8 0 15 7 15 16 0 10 8 14 24 12 13 -1 35 4 50 11 20 11 31 12 51 3
14 -7 36 -12 48 -12 13 0 26 -9 32 -22 19 -43 75 -30 75 17 0 30 26 53 42 37
7 -7 35 -12 63 -12 42 0 56 -5 74 -24 13 -14 20 -29 16 -35 -3 -6 1 -11 9 -11
8 0 18 5 21 10 3 6 21 10 40 10 19 0 37 -4 40 -10 9 -15 45 -12 45 4 0 7 7 19
15 26 13 11 20 9 43 -13 16 -15 38 -27 50 -27 13 0 22 -6 22 -16 0 -13 10 -15
58 -13 36 2 71 -3 95 -14 30 -13 43 -14 63 -5 19 9 30 9 45 0 16 -10 22 -9 39
8 12 12 24 18 29 16 4 -3 18 6 31 19 20 22 21 25 6 31 -9 3 -23 1 -30 -5 -16
-14 -42 -2 -88 38 -38 34 -37 61 1 61 17 0 33 -5 37 -11 4 -8 9 -8 18 1 8 8 7
13 -3 19 -11 7 -11 10 0 17 8 5 21 9 29 10 8 1 25 2 38 3 12 0 22 8 22 16 0 9
6 12 16 8 39 -15 99 87 92 157 -6 61 -103 96 -170 60 -26 -14 -38 -16 -47 -7
-15 15 -14 77 2 77 22 0 67 50 67 75 0 14 -4 25 -10 25 -5 0 -16 13 -25 30 -8
16 -27 33 -40 36 -16 4 -25 13 -25 26 0 17 5 20 30 16 l30 -5 0 82 c0 50 -5
86 -12 93 -7 7 -8 12 -2 12 5 1 -10 10 -33 21 -42 19 -43 21 -43 66 0 30 6 53
17 66 17 18 17 19 -1 32 -18 14 -19 56 -3 95 4 8 -2 26 -13 40 l-19 25 -7 -32z"/>
<path d="M4510 5285 c-8 -9 -9 -15 -2 -15 6 0 14 5 17 10 4 6 31 10 61 9 30
-1 57 1 61 4 3 4 -23 7 -59 7 -46 0 -69 -4 -78 -15z"/>
<path d="M4710 5235 c0 -11 -11 -15 -39 -15 l-39 0 4 -47 c4 -40 3 -44 -6 -24
-8 19 -13 22 -22 13 -19 -19 -27 -14 -30 21 l-4 32 -14 -30 c-15 -30 -34 -55
-43 -55 -3 0 -7 9 -10 20 -3 11 -16 24 -29 29 -36 13 -46 -12 -49 -131 -3
-102 -2 -106 24 -134 23 -24 27 -38 27 -85 0 -52 2 -57 28 -67 26 -11 56 -16
76 -13 5 0 1 10 -9 21 -15 17 -16 22 -4 36 8 10 13 25 11 34 -2 10 4 20 13 23
8 4 15 16 15 27 0 11 6 20 14 20 7 0 30 16 50 35 21 19 41 35 46 35 14 0 23
41 11 53 -8 8 -6 16 6 29 20 22 43 23 43 2 0 -9 6 -14 13 -11 6 2 12 19 12 38
0 30 -3 34 -27 37 -16 2 -28 8 -28 13 0 5 -7 9 -15 9 -20 0 -19 29 1 51 9 10
14 25 11 34 -8 19 -37 20 -37 0z"/>
<path d="M2342 5180 c0 -14 2 -19 5 -12 2 6 2 18 0 25 -3 6 -5 1 -5 -13z"/>
<path d="M6640 5090 c-8 -5 -46 -10 -83 -10 -38 0 -78 -6 -90 -12 -12 -7 -44
-17 -72 -23 l-50 -10 2 -75 c1 -41 2 -96 2 -122 1 -47 2 -48 32 -48 22 0 30
-4 26 -14 -3 -8 9 -21 31 -33 36 -19 38 -19 68 -1 26 15 36 16 57 7 31 -14 56
-69 59 -133 3 -46 5 -49 49 -71 25 -13 51 -31 58 -39 8 -9 22 -16 32 -16 11 0
19 -4 19 -10 0 -5 9 -10 19 -10 23 0 52 36 45 55 -4 9 8 15 38 18 74 10 113
19 120 31 4 6 8 39 8 72 0 69 7 79 63 89 21 4 37 13 37 21 0 10 12 14 39 14
21 0 44 6 50 14 14 16 8 21 -36 31 -18 3 -33 9 -33 11 0 3 9 22 20 43 21 42
18 51 -16 51 -28 0 -108 56 -122 85 -5 12 -27 25 -53 32 -24 6 -61 23 -82 37
-31 21 -41 24 -56 14 -15 -9 -28 -9 -59 0 -47 14 -102 15 -122 2z"/>
<path d="M2480 5075 c-7 -8 -10 -18 -7 -21 9 -10 48 7 44 19 -6 18 -23 19 -37
2z"/>
<path d="M4993 4982 c21 -23 5 -52 -28 -52 -18 0 -25 -5 -25 -20 0 -23 -31
-27 -52 -6 -9 8 -21 10 -35 5 -29 -11 -36 -25 -21 -48 9 -15 9 -23 -1 -34 -21
-26 7 -59 46 -55 25 3 33 0 38 -17 6 -20 6 -19 15 3 5 12 16 22 24 22 22 0 41
39 27 53 -8 8 -1 21 25 48 31 31 34 40 25 57 -6 11 -11 30 -11 41 0 15 -6 21
-22 21 -19 0 -20 -1 -5 -18z"/>
<path d="M4720 4870 c0 -6 -6 -10 -12 -9 -29 4 -38 -2 -38 -26 0 -18 5 -25 20
-25 11 0 23 -7 26 -15 4 -8 17 -15 30 -15 21 0 24 4 24 40 0 29 -4 40 -15 40
-8 0 -15 5 -15 10 0 6 -4 10 -10 10 -5 0 -10 -5 -10 -10z"/>
<path d="M2384 4859 c-3 -6 1 -18 10 -27 15 -15 17 -15 34 1 15 16 15 19 2 27
-20 13 -37 12 -46 -1z"/>
<path d="M2500 4788 c-19 -4 -43 -13 -52 -18 -10 -5 -24 -7 -32 -4 -18 7 -31
-15 -17 -29 8 -8 14 -8 23 1 27 27 55 -6 29 -33 -5 -6 -12 -30 -15 -55 -3 -25
-5 -46 -5 -47 -1 -2 -9 -3 -19 -3 -10 0 -28 -11 -41 -23 -19 -21 -30 -24 -104
-24 -69 1 -83 -2 -85 -16 -3 -12 4 -17 22 -17 19 0 26 -5 26 -19 0 -11 -6 -22
-12 -24 -7 -3 -3 -6 9 -6 12 -1 25 4 28 9 3 6 19 10 36 10 22 0 29 -5 29 -18
0 -23 30 -52 54 -52 12 0 16 -5 12 -18 -16 -51 107 -74 129 -24 5 12 13 22 17
22 5 0 8 7 8 15 0 8 -4 15 -10 15 -18 0 -10 60 10 83 11 12 19 26 16 32 -2 6
5 17 15 23 11 7 19 23 19 40 0 17 10 38 25 52 21 20 23 26 11 39 -7 9 -19 31
-27 49 -8 17 -21 32 -29 32 -9 0 -20 4 -25 9 -6 4 -25 4 -45 -1z"/>
<path d="M4476 4734 c-5 -18 -2 -32 9 -43 23 -26 19 -39 -22 -60 -21 -11 -32
-20 -25 -21 6 0 12 -11 12 -25 0 -16 9 -29 26 -38 17 -9 23 -17 15 -21 -18
-12 -13 -25 19 -41 21 -11 30 -23 30 -40 0 -30 -16 -33 -25 -5 -9 29 -49 52
-82 48 -26 -3 -28 -7 -31 -50 -2 -26 -9 -59 -16 -74 l-14 -25 -16 23 c-9 12
-16 34 -17 48 0 14 -3 19 -6 13 -2 -7 -12 -13 -20 -13 -12 0 -14 7 -10 29 5
23 2 30 -19 40 -14 6 -44 11 -67 11 -38 0 -44 -3 -56 -31 -7 -17 -10 -34 -5
-38 21 -15 36 -53 25 -64 -6 -6 -11 -28 -11 -48 0 -24 -5 -39 -16 -43 -11 -4
-15 -17 -13 -44 2 -21 -1 -43 -5 -50 -4 -7 -3 -18 2 -25 11 -13 8 -40 -8 -82
-10 -28 -11 -28 -88 -23 -55 4 -88 1 -114 -9 -38 -15 -38 -16 -38 -71 0 -48
-4 -59 -26 -77 -23 -18 -25 -27 -26 -98 0 -42 -4 -77 -9 -77 -18 0 -10 -82 10
-99 20 -18 32 -105 17 -129 -9 -15 19 -68 51 -98 16 -15 38 -24 58 -24 18 0
38 -7 45 -15 7 -8 25 -15 40 -15 15 0 33 -7 40 -15 11 -13 5 -23 -34 -65 -25
-27 -46 -58 -46 -68 0 -11 -7 -25 -15 -32 -10 -8 -15 -31 -15 -66 0 -30 -4
-54 -10 -54 -5 0 -10 -10 -10 -23 0 -33 47 -47 159 -47 72 0 93 -3 97 -15 4
-8 13 -15 21 -15 8 0 21 -7 30 -15 11 -11 25 -14 50 -9 26 5 40 2 56 -12 44
-37 63 -44 91 -31 14 7 29 20 32 30 7 23 29 22 54 -3 23 -23 50 -26 68 -8 9 9
15 9 24 0 15 -15 54 -16 63 -2 8 13 163 11 188 -1 9 -6 17 -20 17 -33 0 -28 8
-36 26 -29 17 6 18 35 2 51 -13 13 -5 27 11 17 15 -9 14 -74 -2 -90 -19 -18
-47 0 -47 30 0 29 -43 65 -48 40 -4 -19 -16 -19 -32 0 -7 8 -29 15 -50 15 -21
0 -43 -7 -50 -15 -14 -17 -71 -20 -87 -4 -8 8 -13 8 -17 0 -13 -20 -63 -13
-69 9 -3 11 -12 20 -20 20 -9 0 -19 -9 -22 -20 -3 -11 -14 -20 -24 -20 -9 0
-22 -5 -28 -11 -12 -12 -41 1 -85 40 -23 20 -30 22 -43 11 -14 -12 -14 -15 0
-30 8 -9 15 -30 15 -46 0 -44 16 -54 87 -54 61 0 63 -1 63 -25 0 -19 5 -25 21
-25 29 0 59 18 59 35 0 19 24 19 40 0 9 -10 32 -15 74 -15 52 0 66 -4 84 -23
12 -13 22 -28 22 -33 0 -6 10 -20 23 -32 19 -18 35 -22 84 -22 41 0 64 -5 73
-15 9 -10 24 -13 56 -8 34 4 48 2 57 -10 13 -17 75 -28 83 -15 3 4 18 8 34 8
20 0 31 6 35 20 5 17 15 20 58 20 29 0 76 3 105 7 45 5 55 10 68 34 8 16 21
29 28 29 16 0 26 21 26 55 0 13 8 28 18 34 16 9 16 11 -2 41 -22 38 -13 51 36
55 39 3 45 19 24 69 -13 32 -13 37 1 44 11 6 12 11 4 16 -6 4 -11 15 -11 25 0
12 -13 22 -40 30 -23 7 -49 24 -62 41 -17 24 -29 30 -59 30 -21 0 -41 5 -44
10 -3 6 -29 10 -56 10 -43 0 -51 -3 -59 -24 -5 -13 -14 -28 -21 -32 -19 -11
-111 -4 -128 9 -11 9 -15 9 -18 0 -3 -7 -17 -13 -31 -13 -19 0 -36 -11 -55
-35 -22 -28 -35 -35 -62 -35 -33 0 -35 -2 -35 -33 0 -18 5 -38 12 -45 6 -6 9
-15 5 -19 -13 -12 -36 32 -37 70 0 36 1 37 38 37 39 0 82 31 82 58 0 7 15 12
35 12 19 0 35 3 35 6 0 15 -72 94 -85 94 -8 0 -26 21 -41 48 -15 26 -35 59
-45 74 -11 15 -19 42 -19 61 0 21 -8 41 -20 52 -11 10 -20 29 -20 42 0 12 -6
23 -13 23 -18 0 -37 43 -37 80 0 33 11 38 30 15 7 -9 21 -13 35 -9 13 3 26 1
29 -5 9 -14 48 -14 83 0 73 29 135 64 156 86 35 39 96 67 113 52 8 -6 14 -18
14 -26 0 -13 3 -13 15 -3 22 18 21 239 -1 282 -9 17 -14 44 -12 60 3 16 -1 33
-9 39 -7 6 -13 18 -13 26 0 8 -9 26 -20 40 -25 32 -25 51 -1 77 15 16 20 38
22 96 l2 75 -36 3 -37 3 0 51 0 50 -30 -4 c-27 -4 -33 0 -46 29 -17 34 -28 41
-39 23 -3 -5 -17 -10 -31 -10 -14 0 -46 -10 -72 -23 -36 -18 -62 -23 -112 -22
-67 2 -110 11 -110 23 0 4 9 14 20 22 22 16 27 50 8 50 -6 0 -19 -7 -29 -16
-16 -14 -19 -14 -34 10 -10 14 -26 26 -36 26 -11 0 -19 5 -19 10 0 6 -11 10
-25 10 -27 0 -35 26 -14 47 8 8 2 16 -20 29 -17 10 -31 22 -31 26 0 4 -10 8
-22 8 -12 0 -29 7 -39 15 -15 15 -17 14 -23 -11z"/>
<path d="M6328 4733 c18 -7 15 -22 -14 -60 -20 -26 -32 -33 -52 -31 -21 2 -28
9 -30 30 -3 25 -5 26 -28 16 -13 -6 -24 -17 -24 -23 0 -7 -7 -18 -16 -26 -14
-12 -14 -14 2 -26 15 -11 16 -16 4 -38 -7 -14 -19 -25 -27 -25 -8 0 -13 -12
-13 -32 0 -31 -2 -33 -37 -33 -21 0 -41 4 -45 10 -4 6 -22 5 -50 -2 -52 -14
-68 -4 -68 41 0 52 -21 86 -53 86 -15 0 -36 -6 -47 -12 -14 -9 -27 -10 -47 -3
-28 10 -73 -1 -73 -17 0 -5 -6 -8 -14 -8 -7 0 -19 -7 -26 -15 -9 -11 -16 -12
-25 -5 -8 7 -19 2 -36 -16 -13 -14 -43 -35 -66 -46 -24 -11 -43 -24 -43 -29 0
-5 -20 -9 -45 -9 -24 0 -55 -5 -69 -12 -33 -14 -67 -70 -55 -89 18 -29 10 -41
-26 -37 l-35 4 0 -45 c0 -34 -6 -51 -25 -71 l-25 -27 23 -34 c13 -19 26 -42
30 -51 3 -10 13 -18 22 -18 17 0 20 -16 4 -26 -7 -4 -8 -20 -4 -43 4 -20 9
-70 12 -111 2 -41 10 -78 16 -82 9 -5 9 -10 -1 -20 -6 -6 -12 -27 -12 -45 0
-33 1 -34 35 -27 l35 6 0 -46 0 -45 55 -26 c31 -14 68 -25 84 -25 41 0 59 -25
36 -50 -16 -17 -16 -20 -2 -20 8 0 24 -11 35 -24 14 -19 22 -22 31 -13 6 6 11
17 11 24 0 16 76 18 85 3 5 -8 11 -8 20 0 10 9 21 0 50 -37 40 -53 68 -72 104
-73 13 0 41 -16 62 -35 48 -43 124 -52 160 -19 17 15 39 2 39 -23 0 -7 5 -13
10 -13 6 0 10 6 10 13 0 8 11 19 24 25 18 8 27 7 40 -6 12 -13 18 -14 28 -4
20 20 28 14 28 -19 0 -24 3 -30 16 -25 9 3 19 6 24 6 5 0 23 12 41 27 l32 27
15 -22 c8 -12 20 -22 26 -22 7 0 27 -16 46 -35 27 -28 42 -35 72 -35 22 0 38
-5 38 -12 0 -33 11 8 21 77 11 84 31 135 53 135 7 0 17 10 23 23 24 51 64 87
98 87 52 0 78 47 44 81 -14 14 -19 28 -15 44 5 21 -35 92 -63 109 -10 6 -7
100 5 174 4 28 1 33 -21 42 -37 14 -31 42 15 70 21 14 44 37 51 53 17 41 4
110 -31 158 -19 27 -30 54 -30 75 0 18 -4 36 -10 39 -5 3 -10 26 -10 50 0 47
-9 57 -92 99 -39 20 -49 38 -37 71 9 26 -15 96 -38 112 -19 15 -52 8 -69 -13
-15 -19 -104 -12 -116 10 -5 9 -21 16 -36 15 -15 0 -21 -3 -14 -6z"/>
<path d="M4800 4692 c0 -16 37 -42 60 -42 19 0 20 2 10 15 -7 8 -19 15 -26 15
-8 0 -14 5 -14 10 0 6 -7 10 -15 10 -8 0 -15 -4 -15 -8z"/>
<path d="M4915 4670 c4 -6 11 -8 16 -5 14 9 11 15 -7 15 -8 0 -12 -5 -9 -10z"/>
<path d="M4041 4430 c-27 -23 -51 -26 -51 -6 0 17 -68 6 -105 -18 -23 -15 -25
-22 -25 -89 0 -64 -3 -76 -23 -95 -13 -12 -35 -22 -50 -22 -25 0 -27 3 -27 42
0 29 7 49 21 64 25 27 19 54 -12 54 -25 0 -48 -26 -49 -54 0 -32 -23 -86 -36
-86 -6 0 -14 -9 -17 -20 -4 -16 -11 -19 -30 -15 -30 8 -47 -23 -23 -41 24 -17
19 -32 -15 -49 -30 -16 -31 -16 -24 3 3 11 1 23 -5 27 -6 4 -10 -8 -10 -30 0
-43 27 -71 78 -81 17 -3 32 -12 32 -20 0 -16 16 -19 25 -4 14 23 53 8 100 -40
65 -66 75 -65 75 10 0 67 9 78 88 101 32 9 45 10 54 1 7 -7 31 -12 53 -12 39
0 42 2 53 36 8 27 8 41 -1 55 -9 14 -9 21 1 31 6 6 12 34 12 60 0 26 5 48 10
48 6 0 10 15 10 33 0 18 5 38 12 45 6 6 9 15 5 19 -4 4 -13 1 -19 -5 -25 -25
-38 -13 -38 33 0 40 -2 45 -22 45 -13 -1 -34 -10 -47 -20z"/>
<path d="M8270 4185 c-7 -8 -22 -15 -34 -15 -11 0 -28 -4 -36 -10 -9 -5 -19
-5 -27 1 -21 18 -53 1 -53 -28 l0 -26 -93 7 c-108 8 -114 5 -133 -72 -9 -36
-9 -50 1 -66 14 -24 9 -96 -8 -96 -6 0 -21 10 -34 22 -20 19 -27 20 -44 10
-15 -10 -28 -10 -59 -1 -47 14 -67 8 -80 -26 -13 -33 -26 -32 -39 5 -12 35
-27 39 -36 10 -3 -11 -12 -20 -18 -20 -7 0 -18 9 -25 20 -13 21 -56 27 -67 10
-7 -12 -92 -13 -99 -2 -3 5 -31 14 -63 21 -32 8 -76 23 -98 34 -42 22 -105 26
-238 14 -92 -8 -101 -12 -132 -57 -30 -43 -35 -46 -53 -28 -17 17 -25 3 -28
-44 -1 -34 6 -52 42 -103 31 -46 40 -65 32 -73 -9 -9 -7 -17 6 -31 14 -15 17
-29 12 -55 -7 -38 -29 -56 -68 -56 -24 0 -78 -42 -78 -61 0 -5 -16 -24 -35
-42 -32 -30 -35 -39 -49 -130 -11 -75 -19 -103 -35 -118 -12 -11 -19 -25 -15
-30 3 -6 -3 -17 -15 -25 -14 -10 -21 -26 -21 -48 0 -28 4 -35 28 -41 15 -4 50
-7 78 -6 27 1 70 -5 95 -14 71 -27 87 -28 104 -11 20 20 77 21 114 1 27 -13
31 -13 67 15 27 20 47 27 64 24 32 -7 80 11 80 30 0 24 74 42 114 28 38 -14
85 -3 117 27 24 22 109 31 109 11 0 -5 7 -7 16 -3 8 3 25 -4 38 -16 17 -16 30
-20 49 -16 19 5 34 1 53 -14 19 -15 30 -18 34 -10 11 17 70 -17 70 -41 0 -11
5 -20 10 -20 6 0 10 -27 10 -60 0 -53 2 -60 19 -60 24 0 51 -36 51 -67 0 -16
6 -23 20 -23 13 0 20 -7 20 -20 0 -22 66 -100 85 -100 6 0 20 -9 30 -20 26
-29 35 -25 35 16 0 19 5 44 10 55 11 20 45 26 55 9 8 -13 40 3 78 38 24 23 31
25 47 14 19 -12 20 -9 20 44 0 30 3 53 8 50 7 -4 25 -38 53 -101 7 -16 15 -33
17 -37 2 -4 -9 -8 -25 -10 -22 -2 -28 -8 -28 -28 0 -19 10 -30 45 -49 l45 -24
51 32 c28 17 58 31 66 31 9 0 21 7 28 15 19 22 28 18 35 -15 4 -16 10 -30 14
-30 10 0 31 46 31 65 0 17 36 20 45 5 5 -8 11 -8 20 0 7 6 40 10 73 9 70 -3
78 2 87 41 11 48 65 69 65 25 0 -35 14 -31 51 15 18 22 40 42 49 45 10 3 32
19 50 36 19 19 38 29 48 26 65 -21 65 -21 58 1 -5 15 -1 24 13 32 12 6 28 24
36 41 9 16 27 34 41 40 14 5 28 18 31 29 6 22 18 26 28 10 15 -24 24 -5 27 57
3 66 4 67 35 76 23 7 35 18 43 40 19 54 37 67 100 67 l57 0 11 39 c7 21 12 48
12 60 0 28 -40 89 -62 95 -24 6 -23 19 7 54 31 37 31 40 -2 44 -44 5 -36 38
15 66 34 19 42 29 42 52 0 35 -13 45 -30 25 -16 -20 -51 -19 -96 2 -34 17 -37
17 -48 1 -10 -13 -15 -15 -24 -6 -7 7 -12 18 -12 25 0 8 -12 13 -30 13 -16 0
-30 -4 -30 -10 0 -14 -109 -9 -121 7 -9 10 -15 10 -32 -2 -12 -8 -27 -15 -34
-15 -22 0 -92 51 -98 71 -9 28 -33 23 -72 -16 -35 -35 -66 -45 -78 -25 -5 8
-11 7 -21 -1 -11 -9 -18 -9 -26 -1 -7 7 -33 12 -58 12 l-46 0 -15 57 c-12 45
-19 58 -34 58 -11 0 -26 13 -35 30 -8 17 -16 32 -17 34 -2 2 -9 -2 -17 -8 -9
-7 -39 -11 -77 -9 l-63 3 2 55 c2 49 -2 60 -33 103 -34 45 -57 58 -70 37 -3
-5 -17 -10 -30 -10 -13 0 -27 5 -30 10 -9 15 -31 12 -45 -5z"/>
<path d="M2668 4063 c7 -3 16 -2 19 1 4 3 -2 6 -13 5 -11 0 -14 -3 -6 -6z"/>
<path d="M3380 4025 c-7 -9 -15 -13 -18 -11 -2 3 -17 -1 -33 -10 -33 -17 -39
-56 -13 -85 9 -10 14 -26 12 -36 -5 -26 -38 41 -38 79 l0 29 -72 -3 -72 -3 -7
-32 c-3 -18 -12 -40 -20 -49 -14 -17 -17 -63 -5 -82 5 -8 -1 -12 -17 -12 -13
0 -56 -16 -96 -35 -49 -24 -86 -35 -119 -36 l-47 -1 31 -13 c38 -17 65 -46 47
-52 -7 -3 -13 -12 -13 -20 0 -14 -3 -13 -25 1 -14 9 -45 16 -75 16 -27 0 -50
5 -50 10 0 6 -9 10 -20 10 -12 0 -39 9 -61 20 -22 12 -44 18 -49 15 -4 -3 -20
0 -34 6 -20 10 -23 15 -15 26 9 10 8 17 -1 28 -7 8 -10 22 -6 30 3 8 0 15 -6
15 -6 0 -20 7 -30 17 -16 14 -18 14 -18 1 0 -9 -7 -21 -15 -28 -19 -16 -19
-53 0 -89 12 -25 12 -31 0 -47 -19 -25 -19 -49 0 -64 26 -22 18 -40 -19 -40
-19 0 -38 5 -41 10 -3 6 -17 10 -31 10 -15 0 -24 6 -24 16 0 11 -9 15 -32 14
-18 -1 -50 -2 -70 -1 -35 1 -38 3 -38 31 0 25 -4 30 -25 30 -14 0 -25 5 -25
11 0 7 -8 18 -17 25 -20 14 -43 2 -43 -22 0 -19 -47 -18 -58 2 -7 13 -26 16
-86 16 -43 -1 -81 -3 -84 -6 -3 -3 11 -6 31 -6 34 0 37 -2 37 -28 0 -33 -16
-52 -45 -52 -33 0 -35 -9 -9 -35 31 -31 64 -49 64 -35 0 21 26 8 45 -23 11
-18 30 -33 43 -35 12 -2 22 -10 22 -18 0 -8 5 -14 10 -14 6 0 10 -12 10 -26 0
-25 2 -26 43 -22 40 5 44 3 56 -23 7 -16 10 -37 7 -47 -4 -13 1 -22 19 -32 13
-7 22 -17 19 -22 -3 -4 0 -8 5 -8 18 0 12 -36 -9 -55 -25 -23 -25 -50 0 -75
11 -11 20 -28 20 -39 0 -10 7 -24 15 -31 8 -7 15 -18 15 -25 0 -19 30 -27 47
-14 7 7 16 9 19 6 9 -9 -5 -95 -17 -102 -5 -4 -9 -23 -9 -44 0 -20 -5 -42 -12
-49 -9 -9 -9 -12 0 -12 7 0 12 -11 12 -24 0 -13 7 -29 15 -36 16 -13 22 -120
7 -120 -15 0 -32 24 -32 45 -1 27 -32 88 -47 93 -9 2 -13 -11 -13 -47 0 -27
-4 -53 -10 -56 -14 -9 -12 -63 3 -68 20 -6 -12 -37 -39 -37 -17 0 -24 -6 -24
-20 0 -19 -18 -59 -31 -70 -4 -3 -8 -14 -10 -24 -2 -11 -7 -18 -10 -15 -10 7
-39 -22 -39 -39 0 -9 -20 -37 -45 -62 -45 -46 -46 -46 -25 -65 11 -10 20 -29
20 -42 0 -17 6 -23 23 -23 13 0 32 -9 42 -20 10 -11 24 -20 31 -20 8 0 21 -11
30 -25 9 -14 26 -25 38 -25 12 0 37 -15 54 -33 21 -21 51 -39 82 -47 31 -8 50
-19 50 -28 0 -12 11 -13 59 -8 68 8 91 -6 91 -55 0 -37 23 -47 60 -25 52 30
90 15 90 -36 0 -24 4 -28 29 -28 17 0 33 -4 36 -10 3 -5 28 -10 54 -10 l49 0
-4 48 c-4 49 9 95 34 124 8 10 18 15 22 13 4 -3 13 2 20 10 7 8 29 15 50 15
23 0 43 7 54 19 9 10 28 19 41 19 13 0 32 -9 41 -19 11 -12 31 -19 56 -19 27
0 38 -4 38 -15 0 -19 34 -19 50 0 21 25 50 19 50 -10 0 -18 5 -25 20 -25 11 0
20 -7 20 -15 0 -8 6 -12 13 -9 15 5 64 -42 54 -52 -16 -16 38 -44 83 -44 51 0
66 11 72 50 2 20 9 26 36 28 17 2 32 8 32 13 0 6 15 9 33 7 36 -3 69 27 81 75
6 25 4 27 -28 27 -47 0 -66 28 -66 100 0 31 5 61 11 67 19 19 5 56 -26 73 -16
9 -31 26 -33 38 -3 19 1 22 35 22 30 0 46 7 66 28 28 29 28 39 4 90 -8 16 -7
28 3 47 10 18 10 28 2 38 -6 7 -10 31 -9 52 2 31 7 40 24 45 20 5 20 7 8 30
-8 14 -14 19 -15 13 0 -7 -7 -13 -16 -13 -9 0 -18 -9 -21 -20 -6 -23 -58 -54
-74 -44 -34 21 -25 78 20 118 12 11 21 27 21 36 0 23 20 40 47 40 39 0 80 27
88 57 3 15 14 36 22 46 16 16 17 16 39 -4 l22 -21 12 21 c6 12 15 19 21 16 5
-4 9 5 9 18 0 14 7 30 15 37 10 8 15 31 15 66 0 30 4 54 9 54 5 0 11 13 14 30
4 16 22 47 42 68 43 48 44 62 6 62 -17 0 -33 5 -36 10 -3 6 -19 10 -34 10 -42
0 -93 39 -121 93 -18 34 -31 47 -47 47 -12 0 -25 5 -28 10 -3 6 -17 10 -30 10
-13 0 -27 -4 -30 -10 -9 -14 -35 -12 -35 3 0 7 -20 32 -45 56 -25 24 -45 51
-45 60 -1 18 -30 61 -30 43 0 -19 -55 -14 -74 7 -15 16 -15 19 -1 31 9 8 15
25 13 39 -2 21 -9 27 -36 29 -27 3 -36 10 -48 38 -9 22 -21 34 -34 34 -16 0
-20 6 -19 33 2 30 2 30 6 5 3 -21 10 -28 27 -28 16 0 25 -9 35 -35 11 -31 16
-35 48 -35 l35 0 -4 -56 c-4 -43 -1 -57 10 -62 8 -3 20 2 27 11 20 28 33 20
62 -43 15 -33 33 -60 39 -60 6 0 21 -11 33 -24 14 -15 29 -22 42 -19 18 5 19
11 14 57 -7 51 -6 53 29 84 20 17 36 37 36 43 0 7 8 17 17 24 14 11 15 15 4
28 -10 13 -10 23 0 51 18 49 0 101 -50 150 -38 37 -41 39 -59 23 -23 -21 -52
-22 -52 -3 0 17 -64 41 -85 32 -8 -3 -15 -12 -15 -21 0 -25 -92 -21 -108 5 -7
11 -19 20 -27 20 -8 0 -15 7 -15 15 0 19 -14 19 -30 0z"/>
<path d="M5215 3698 c-11 -6 -33 -23 -50 -38 -32 -29 -59 -45 -147 -84 -60
-27 -107 -33 -124 -16 -15 15 -64 -8 -57 -26 3 -8 11 -14 19 -14 8 0 14 -9 14
-21 0 -12 11 -34 25 -51 14 -16 25 -42 25 -57 0 -34 67 -160 90 -169 10 -4 34
-27 55 -51 46 -57 78 -73 134 -69 38 3 47 8 61 33 15 27 22 30 70 33 29 2 58
-2 63 -7 6 -6 27 -11 47 -11 28 0 39 -6 55 -30 19 -28 48 -45 88 -52 22 -4 52
-79 36 -89 -10 -6 51 -59 69 -59 4 0 19 -11 32 -25 18 -20 33 -25 69 -25 73 0
120 17 127 45 6 23 11 25 68 25 55 0 69 4 122 39 62 40 81 58 99 95 9 19 20
21 104 24 67 2 97 -1 102 -10 4 -6 29 -12 56 -13 27 -1 53 -4 59 -8 7 -4 11 6
11 25 0 17 7 36 16 43 10 7 17 19 17 28 0 9 5 19 10 22 24 15 9 35 -25 35 -26
0 -45 9 -74 35 -21 19 -43 35 -49 35 -6 0 -14 9 -17 20 -8 25 -20 25 -37 1 -7
-10 -23 -21 -35 -25 -13 -3 -32 -9 -43 -12 -16 -4 -20 -1 -20 20 0 21 -5 26
-24 26 -14 0 -28 5 -31 10 -9 14 -34 -2 -48 -30 -19 -37 -37 -37 -37 0 0 30
-2 32 -27 25 -16 -3 -35 -13 -44 -21 -14 -13 -18 -13 -29 1 -7 8 -25 15 -39
15 -18 0 -39 12 -61 35 -21 22 -43 35 -59 35 -36 0 -85 32 -107 69 -13 21 -24
29 -35 26 -10 -3 -20 -1 -24 5 -8 12 -55 14 -55 1 0 -5 -9 -11 -20 -14 -11 -3
-20 -12 -20 -21 0 -26 -18 -18 -35 14 -12 23 -22 30 -45 30 -36 0 -37 6 -9 37
17 17 19 23 8 26 -8 2 -30 10 -49 17 -19 6 -43 13 -53 14 -9 1 -23 8 -29 14
-7 7 -18 12 -25 12 -9 0 -13 15 -13 45 0 40 -2 45 -23 45 -12 0 -28 -9 -35
-20 -16 -25 -39 -26 -60 0 -14 16 -21 17 -37 8z"/>
<path d="M3766 3641 c-12 -13 -15 -31 -12 -71 4 -56 6 -59 69 -74 26 -6 27 -5
27 37 0 33 -6 49 -25 67 -14 13 -25 29 -25 36 0 22 -17 24 -34 5z"/>
<path d="M7424 3119 c-10 -12 -30 -26 -44 -31 l-25 -10 30 -24 c17 -13 38 -27
48 -30 14 -4 17 -14 15 -47 -3 -42 -2 -42 42 -58 34 -12 46 -21 48 -40 4 -29
26 -55 66 -80 17 -10 35 -34 42 -56 16 -45 18 -123 4 -123 -5 0 -10 -9 -10
-19 0 -11 5 -23 10 -26 6 -3 10 -31 10 -61 0 -71 13 -96 44 -88 13 3 34 0 46
-6 18 -9 25 -8 40 5 13 12 27 15 49 10 34 -7 39 2 19 35 -21 33 1 54 58 58 27
2 54 8 61 13 7 6 22 8 33 4 19 -6 21 -3 18 26 -2 27 -8 34 -34 41 -17 4 -38
15 -45 24 -12 15 -11 18 3 27 15 10 13 15 -18 49 -19 21 -34 47 -34 57 0 13
-8 21 -22 23 -17 2 -24 12 -28 38 -8 48 -17 60 -46 60 -22 0 -24 4 -24 50 0
28 -4 58 -9 68 -5 9 -12 25 -15 36 -5 13 -12 17 -27 13 -14 -4 -35 3 -57 18
-32 22 -38 23 -52 10 -15 -13 -19 -12 -40 10 -13 14 -34 25 -46 25 -13 0 -26
5 -29 10 -11 18 -61 11 -81 -11z"/>
<path d="M7224 3086 c-17 -8 -34 -23 -37 -35 -4 -18 -13 -21 -57 -21 -39 0
-59 -6 -84 -25 -38 -29 -56 -31 -96 -10 -32 17 -72 12 -91 -11 -16 -19 -43
-18 -87 5 -49 25 -102 35 -142 26 -29 -6 -30 -8 -16 -24 26 -28 19 -64 -17
-99 -18 -18 -37 -32 -42 -32 -18 0 -65 -55 -65 -76 0 -13 -4 -26 -10 -29 -5
-3 -10 -23 -10 -43 0 -33 -9 -46 -84 -121 -90 -89 -132 -161 -95 -161 10 0 19
-4 19 -8 0 -5 -13 -7 -30 -4 -32 5 -37 11 -18 30 8 8 5 14 -16 22 -38 14 -58
13 -95 -6 -24 -12 -36 -13 -44 -5 -17 17 -48 13 -82 -9 -16 -11 -41 -20 -56
-20 -16 0 -38 -13 -59 -35 -34 -35 -36 -35 -95 -29 -63 6 -125 28 -125 44 0 6
-6 10 -13 10 -24 0 -107 94 -107 121 0 15 -13 37 -32 56 -41 38 -59 44 -78 27
-10 -8 -56 -16 -114 -20 -80 -6 -100 -10 -103 -24 -3 -11 -15 -17 -35 -17 -16
0 -34 -6 -38 -14 -7 -11 -12 -11 -22 -1 -6 6 -23 12 -37 12 -13 0 -32 7 -42
15 -11 11 -25 14 -44 9 -25 -6 -27 -9 -20 -50 5 -34 3 -45 -12 -54 -13 -8 -14
-13 -5 -16 6 -3 12 -14 12 -24 0 -22 16 -35 25 -20 13 21 25 9 25 -26 0 -44
-15 -74 -38 -74 -27 0 -28 -84 -2 -110 11 -11 20 -28 20 -37 0 -24 56 42 72
85 16 43 38 41 82 -8 42 -47 53 -80 36 -119 -18 -44 -10 -77 18 -74 14 2 22
-3 22 -12 0 -8 6 -15 13 -15 14 0 57 -41 57 -53 0 -4 -11 -7 -24 -7 l-25 0 26
-40 c15 -22 32 -40 38 -40 14 0 55 -42 55 -57 0 -19 38 -25 75 -12 35 13 36
12 81 -31 25 -25 52 -57 60 -72 9 -18 23 -28 38 -28 15 0 27 -9 34 -25 6 -14
28 -33 48 -43 21 -9 50 -29 67 -44 20 -20 40 -28 66 -28 41 -1 71 -19 71 -45
0 -9 9 -19 19 -22 11 -3 21 -15 23 -27 2 -13 11 -22 26 -24 12 -2 22 -10 22
-18 0 -19 26 -18 34 2 3 9 6 38 6 64 0 52 4 58 59 77 31 11 37 10 64 -13 15
-13 39 -24 51 -24 18 0 24 -9 34 -47 9 -32 10 -49 2 -57 -13 -13 -13 -93 0
-101 6 -3 10 -22 10 -41 0 -19 4 -34 9 -34 5 0 11 -12 13 -27 4 -34 18 -38 46
-12 18 16 26 18 37 9 14 -12 42 -10 125 6 19 3 47 18 62 32 26 24 29 24 46 9
25 -23 29 -22 69 13 18 16 39 30 46 30 7 0 3 7 -7 15 -16 12 -17 18 -8 27 23
23 12 54 -35 100 -27 25 -58 51 -70 57 -20 10 -23 19 -23 75 0 45 4 65 14 69
8 3 12 16 11 31 -2 17 4 31 17 40 23 16 49 62 40 70 -3 3 -15 6 -26 6 -26 0
-49 33 -57 80 -3 19 -9 43 -14 53 -5 11 -3 17 7 17 8 0 29 15 47 34 27 28 31
37 22 54 -6 11 -18 22 -26 26 -13 5 -14 10 -5 27 17 31 6 34 -39 8 l-40 -22
-39 26 c-26 19 -51 27 -80 27 -38 0 -42 2 -42 25 0 14 5 34 12 45 10 15 9 22
-6 39 -10 11 -30 21 -45 23 -19 2 -27 9 -29 28 -2 14 -8 29 -13 34 -15 16 -10
29 6 16 8 -7 15 -23 15 -36 0 -18 5 -24 23 -24 43 0 97 -77 67 -95 -5 -3 -10
-15 -10 -26 0 -16 7 -19 40 -19 26 0 51 -8 71 -22 25 -18 33 -20 47 -10 45 32
62 36 80 19 13 -13 14 -21 6 -35 -8 -13 -8 -19 2 -27 8 -5 22 -41 32 -80 l18
-70 84 -8 c47 -4 132 -10 190 -13 58 -3 109 -9 114 -15 15 -14 66 -11 72 5 3
8 18 17 32 21 28 6 84 54 114 97 11 16 36 30 74 41 51 15 60 15 74 2 11 -10
51 -17 121 -21 83 -6 111 -12 140 -29 l35 -23 14 31 c10 23 10 34 1 48 -18 30
-13 80 12 107 21 23 21 24 2 20 -13 -2 -19 2 -18 12 3 25 29 90 41 102 16 16
42 -8 42 -39 0 -22 2 -24 15 -13 8 7 15 19 15 26 0 8 7 14 15 14 17 0 35 30
35 59 0 11 -11 31 -25 45 -48 48 -85 58 -116 30 -14 -13 -22 -13 -39 -4 -12 7
-34 10 -48 7 -37 -7 -51 17 -52 89 0 42 -5 65 -15 74 -8 7 -15 25 -15 41 0 19
5 29 15 29 9 0 15 9 15 24 0 28 -37 116 -50 116 -5 0 -22 12 -39 26 -21 18
-31 35 -31 55 0 25 -5 30 -47 42 -47 14 -48 15 -48 54 0 36 -5 44 -45 75 -25
19 -59 39 -75 45 -17 6 -37 14 -45 17 -8 3 -29 -1 -46 -8z"/>
<path d="M6232 3078 c-7 -7 -12 -17 -12 -24 0 -13 -49 -56 -107 -94 -28 -18
-57 -26 -108 -30 -61 -4 -70 -8 -73 -26 -4 -28 -53 -44 -134 -44 -48 0 -69 4
-79 16 -7 9 -22 20 -34 25 -11 5 -31 17 -44 26 l-23 17 6 -31 c5 -19 2 -39 -5
-51 -10 -17 -17 -18 -41 -10 -32 11 -48 4 -30 -14 13 -13 17 -78 4 -78 -4 0
-13 -20 -20 -44 -8 -31 -18 -45 -34 -50 l-23 -7 26 -12 c37 -17 89 -81 89
-109 0 -25 75 -108 98 -108 7 0 22 -9 34 -20 13 -12 36 -20 57 -21 20 0 45 -4
56 -8 15 -6 30 1 64 30 27 24 54 39 70 39 15 0 35 6 46 14 32 21 73 27 94 14
16 -10 23 -9 39 5 21 19 64 22 93 6 17 -9 28 -1 84 58 35 37 64 74 65 81 0 6
6 12 14 12 24 0 52 45 50 79 -1 16 4 35 12 42 8 6 14 24 14 38 0 25 35 71 54
71 11 0 86 62 86 72 0 18 -46 78 -60 78 -9 0 -24 9 -33 21 -14 16 -25 19 -45
14 -15 -4 -29 -7 -32 -8 -10 -2 -60 27 -60 35 0 13 -144 10 -158 -4z"/>
<path d="M3835 2931 c-8 -38 -37 -63 -81 -70 -22 -4 -41 -14 -48 -26 -6 -11
-26 -37 -43 -59 -35 -42 -38 -52 -24 -75 8 -12 13 -12 35 3 14 9 26 23 26 31
0 8 5 15 11 15 7 0 18 8 25 18 13 16 15 16 34 -7 27 -31 27 -71 0 -71 -22 0
-27 -15 -9 -26 8 -4 7 -9 -2 -15 -11 -6 -9 -13 9 -32 21 -22 27 -24 64 -14 29
7 46 7 59 -1 10 -7 32 -12 48 -12 28 0 33 7 55 73 4 14 14 17 38 15 28 -3 33
-7 36 -33 2 -16 15 -42 29 -57 l26 -27 38 32 c28 23 39 40 39 60 0 33 33 38
52 7 8 -13 24 -20 43 -20 17 0 37 -6 44 -12 10 -11 11 -8 7 12 -8 34 37 69 65
51 17 -10 19 -8 19 19 0 27 -3 30 -33 30 -21 0 -41 8 -52 20 -10 11 -30 20
-45 20 -22 0 -29 6 -33 28 -3 15 1 37 9 50 14 21 13 23 -11 34 -14 6 -25 15
-25 20 0 4 -9 8 -20 8 -11 0 -20 4 -20 9 0 5 -44 12 -97 14 -54 3 -116 7 -138
9 -27 2 -44 -1 -52 -12 -10 -13 -13 -13 -30 3 -28 24 -40 21 -48 -12z"/>
<path d="M4284 2835 c-9 -21 3 -45 21 -45 21 0 30 27 15 45 -16 19 -29 19 -36
0z"/>
<path d="M948 2773 c-39 -3 -58 -8 -58 -17 0 -12 -41 -56 -52 -56 -3 0 -8 8
-11 19 -6 24 -78 35 -90 14 -5 -8 -16 -11 -26 -8 -11 3 -24 -2 -32 -11 -11
-14 -11 -18 4 -29 9 -7 17 -20 17 -29 0 -9 7 -16 15 -16 19 0 20 -34 1 -50 -8
-6 -16 -30 -18 -53 -3 -37 -6 -42 -28 -43 -45 -2 -50 -4 -50 -19 0 -18 66 -21
72 -3 3 9 15 8 44 -4 32 -13 40 -21 42 -47 3 -28 7 -31 37 -31 19 0 36 -4 40
-9 11 -18 68 -41 102 -41 18 0 33 -4 33 -10 0 -5 11 -10 25 -10 26 0 53 -34
35 -45 -18 -11 -11 -38 17 -67 l27 -28 -22 -20 c-12 -11 -28 -20 -37 -20 -9 0
-23 -7 -32 -15 -8 -8 -19 -13 -24 -10 -5 4 -9 -1 -9 -9 0 -9 -9 -16 -20 -16
-11 0 -23 -8 -26 -17 -3 -10 -14 -36 -25 -58 -10 -22 -20 -60 -21 -85 -2 -35
-7 -46 -22 -48 -25 -5 -62 -47 -87 -101 -19 -39 -23 -43 -50 -37 -28 5 -29 4
-29 -29 0 -18 5 -37 10 -40 20 -12 11 -71 -15 -95 -14 -13 -25 -29 -25 -37 0
-7 -6 -13 -14 -13 -8 0 -22 -14 -30 -32 -20 -39 -20 -38 4 -38 15 0 20 -7 20
-29 0 -23 -7 -33 -32 -45 -17 -9 -38 -16 -47 -16 -24 0 -61 -64 -61 -105 0
-29 4 -36 25 -41 27 -7 85 -67 85 -88 0 -7 15 -19 33 -27 23 -10 33 -22 35
-41 2 -16 8 -28 13 -28 12 0 12 -37 -1 -45 -5 -3 -10 -15 -10 -27 0 -14 -5
-18 -15 -15 -11 5 -13 0 -8 -26 7 -38 20 -57 39 -57 8 0 23 -15 34 -32 19 -31
21 -32 26 -12 6 24 42 44 79 44 13 0 27 5 30 10 8 13 51 13 78 -1 18 -10 24
-8 42 15 26 33 61 34 109 1 20 -14 46 -25 56 -25 11 0 24 -9 30 -20 9 -17 21
-20 83 -20 44 0 78 -5 85 -12 10 -10 17 -10 32 0 27 16 65 15 80 -3 7 -8 18
-15 25 -15 8 0 15 -5 17 -12 7 -21 28 2 28 31 0 20 7 31 25 39 14 6 25 16 25
22 0 5 11 10 24 10 13 0 29 7 36 15 14 17 82 20 110 5 15 -8 28 -5 60 15 33
21 40 31 38 52 -2 21 2 28 22 33 14 3 30 16 37 29 16 33 31 41 79 41 53 0 79
26 65 63 -5 14 -15 28 -20 32 -6 3 -11 40 -11 85 0 76 1 79 34 106 18 16 48
38 67 49 18 11 41 25 51 31 9 6 42 33 72 60 30 27 65 58 78 69 13 11 28 29 34
39 9 18 21 19 127 17 93 -2 121 1 139 13 12 9 30 16 39 16 9 0 22 7 29 15 7 8
27 15 45 15 56 0 108 36 143 97 17 32 16 67 -3 60 -8 -4 -17 -1 -21 4 -3 6
-17 8 -31 4 -16 -4 -34 0 -50 10 -19 13 -37 15 -73 10 -52 -7 -90 6 -90 30 0
8 -8 15 -18 15 -24 0 -56 35 -49 53 9 25 -22 59 -46 51 -29 -9 -89 -7 -96 4
-3 5 -24 15 -46 23 -22 7 -56 28 -75 46 -21 19 -46 33 -61 33 -17 0 -30 8 -39
25 -7 14 -19 25 -25 25 -6 0 -22 11 -35 25 -13 14 -34 25 -47 25 -17 0 -23 6
-23 23 0 30 -68 97 -99 97 -27 0 -58 15 -88 43 -18 16 -30 18 -62 13 -37 -6
-42 -3 -63 24 -13 18 -31 30 -44 30 -13 0 -30 10 -38 21 -13 18 -22 21 -61 17
-25 -3 -48 -2 -51 3 -3 5 -17 9 -31 9 -15 0 -37 10 -50 22 -23 22 -84 48 -114
48 -8 0 -25 9 -37 20 -12 11 -27 20 -35 20 -7 0 -22 7 -33 15 -10 8 -33 15
-50 15 -17 0 -43 9 -57 21 -21 16 -31 18 -46 9 -18 -9 -24 -5 -46 30 -14 22
-25 46 -25 55 0 8 -3 14 -7 13 -5 -1 -34 -3 -65 -5z"/>
<path d="M4450 2704 c0 -36 0 -37 -35 -31 -38 6 -51 -5 -46 -41 3 -25 -24 -41
-42 -23 -6 6 -26 11 -44 11 -27 0 -35 5 -43 25 -14 36 -30 31 -30 -10 0 -22
-5 -35 -13 -35 -16 0 -57 -42 -57 -58 0 -20 -15 -14 -49 22 -18 19 -36 49 -40
68 -11 53 -32 45 -60 -24 -9 -25 -16 -28 -55 -28 -25 0 -47 4 -50 8 -7 12
-118 -9 -134 -24 -10 -10 -8 -20 8 -49 26 -46 26 -49 -12 -84 -23 -22 -43 -31
-66 -31 -40 0 -39 -17 4 -40 34 -19 45 -69 20 -90 -19 -15 -21 -78 -4 -115 9
-20 18 -25 48 -25 51 0 70 -23 44 -52 l-19 -21 46 5 c49 6 101 35 94 54 -2 7
9 23 24 38 34 33 99 36 125 7 10 -11 25 -17 37 -14 11 3 28 -2 39 -12 19 -17
21 -17 38 -2 19 17 72 24 72 9 0 -4 -5 -13 -12 -20 -8 -8 -8 -15 1 -26 7 -8
10 -24 6 -36 -4 -11 -2 -20 4 -20 15 0 28 -28 50 -115 24 -89 90 -235 108
-235 6 0 24 -16 40 -36 51 -65 301 -320 310 -317 5 2 15 -8 21 -22 8 -17 20
-25 37 -25 14 0 28 -7 31 -15 4 -9 13 -13 23 -10 11 3 36 -15 76 -55 33 -33
64 -60 71 -60 6 0 19 -9 29 -20 10 -11 23 -20 30 -20 24 0 45 -37 45 -78 0
-44 17 -62 60 -62 32 0 100 -38 100 -57 0 -9 6 -24 14 -32 21 -25 56 -140 56
-186 0 -46 -13 -65 -47 -65 -21 0 -23 -5 -23 -49 0 -42 -4 -53 -29 -73 -27
-23 -28 -25 -10 -36 34 -22 82 -14 117 18 18 16 37 30 43 30 5 0 9 17 9 38 0
51 59 112 108 112 l33 0 -3 78 -3 77 -36 -3 c-30 -2 -37 2 -47 23 -18 38 -15
114 3 121 8 4 15 16 15 28 0 30 40 66 73 66 15 0 27 -4 27 -10 0 -18 58 -40
105 -40 40 0 45 -3 46 -22 1 -43 33 -83 65 -83 29 0 29 1 32 61 3 56 1 61 -23
72 -14 6 -30 23 -35 37 -11 30 -86 79 -108 70 -9 -3 -26 4 -41 18 -14 13 -42
30 -61 37 -19 7 -46 24 -61 37 -15 14 -37 23 -58 23 -18 0 -44 9 -58 20 -14
11 -34 20 -44 20 -23 0 -24 13 -4 30 8 7 15 9 15 5 0 -5 9 0 20 10 49 45 -1
75 -123 75 -62 0 -117 14 -117 30 0 4 -24 35 -52 69 -114 132 -111 127 -105
178 5 44 -4 75 -44 155 -5 10 -9 27 -9 38 0 11 -7 20 -15 20 -9 0 -38 11 -65
25 -28 14 -53 25 -57 25 -36 0 -54 23 -84 112 -10 30 -10 41 -1 50 7 7 12 22
12 33 0 12 11 32 25 45 26 24 26 24 4 32 -11 4 -23 17 -26 28 -3 11 -12 20
-21 20 -13 0 -12 3 3 20 10 11 25 20 33 20 9 0 13 7 9 20 -5 18 0 20 52 20 46
0 61 4 83 25 32 29 73 33 87 8 10 -17 10 -17 11 0 0 9 5 17 10 17 16 0 12 21
-7 43 -17 18 -17 19 1 32 15 11 17 21 11 51 -9 50 -29 63 -96 64 -61 0 -109
26 -109 59 0 10 -10 27 -23 39 -19 18 -35 22 -83 22 -33 0 -65 5 -72 12 -8 8
-16 6 -30 -12 -13 -16 -30 -23 -58 -24 -33 -1 -39 2 -42 22 -5 36 -22 25 -22
-14z"/>
<path d="M8630 2659 c0 -23 -8 -34 -35 -50 -19 -12 -35 -27 -35 -35 0 -9 -11
-14 -28 -14 -30 0 -52 -16 -52 -37 0 -7 9 -13 21 -13 11 0 34 -9 50 -21 20
-14 38 -19 54 -15 21 5 24 2 29 -32 3 -20 4 -61 3 -89 l-3 -53 31 0 c17 0 35
-4 41 -10 18 -18 67 4 78 36 17 45 46 84 77 100 35 18 39 18 39 0 0 -34 20
-23 30 16 15 55 45 88 82 88 15 0 28 -4 28 -10 0 -15 94 -12 116 4 15 12 17
17 7 27 -19 19 -16 47 5 52 9 3 -3 5 -28 6 -37 1 -52 -5 -83 -30 -31 -25 -48
-32 -88 -33 -31 -1 -49 3 -49 10 0 17 -26 24 -59 18 -23 -5 -30 -2 -36 15 -3
12 -15 21 -26 21 -10 0 -19 7 -19 15 0 18 -29 65 -40 65 -4 0 -12 -11 -18 -25
-14 -30 -38 -33 -47 -6 -3 10 -15 21 -25 24 -17 4 -20 0 -20 -24z"/>
<path d="M710 2450 c0 -6 -16 -10 -35 -10 -33 0 -35 -2 -35 -34 0 -24 -7 -39
-21 -50 -18 -12 -20 -21 -15 -49 5 -26 2 -38 -14 -52 -11 -10 -20 -28 -20 -40
0 -12 -11 -32 -25 -45 -14 -13 -25 -34 -25 -47 0 -27 -44 -102 -72 -121 -10
-7 -18 -19 -18 -27 0 -7 -10 -30 -22 -49 -20 -30 -27 -35 -51 -30 -40 8 -67
-19 -67 -66 0 -26 -7 -43 -25 -60 -30 -28 -33 -60 -7 -60 11 0 33 -7 50 -16
42 -20 45 -69 7 -104 -14 -13 -25 -31 -25 -41 0 -10 -5 -21 -10 -24 -7 -5 -8
-11 -1 -19 16 -19 -10 -84 -36 -91 -14 -3 -23 -13 -23 -24 0 -10 -11 -35 -25
-55 -14 -20 -25 -39 -25 -41 0 -10 31 -5 51 8 17 10 23 9 39 -10 10 -13 25
-23 34 -23 8 0 18 -5 21 -10 11 -17 85 -51 96 -44 6 4 15 1 19 -7 7 -10 14
-10 34 -1 22 10 26 18 26 57 0 63 37 125 75 125 22 1 55 22 55 36 0 5 -9 15
-20 22 -20 12 -28 42 -11 42 5 0 11 10 13 23 2 12 13 26 26 32 12 5 22 14 22
19 0 5 11 19 25 32 29 26 32 46 10 64 -10 8 -15 31 -15 67 0 49 2 54 18 48 44
-18 49 -17 67 22 26 54 67 103 88 103 13 0 17 9 17 39 0 42 45 140 78 172 12
10 30 19 42 19 11 0 20 5 20 10 0 6 7 10 15 10 24 0 55 36 42 49 -6 6 -17 11
-24 11 -15 0 -18 56 -3 65 15 10 2 25 -22 25 -11 0 -27 8 -34 18 -13 16 -15
16 -28 0 -12 -17 -14 -17 -32 3 -24 26 -70 47 -114 51 -31 3 -35 6 -38 34 -2
22 -11 35 -28 42 -15 7 -24 8 -24 2z"/>
<path d="M9992 2340 c-17 -23 -31 -30 -55 -30 -31 0 -57 -14 -57 -32 0 -4 16
-10 35 -14 19 -3 35 -11 35 -16 0 -5 9 -6 21 -3 13 5 25 1 33 -10 11 -15 13
-15 25 -1 17 20 60 21 67 1 4 -10 16 -14 32 -13 21 2 27 -1 27 -17 0 -16 8
-21 39 -25 33 -4 41 -10 47 -33 4 -16 33 -55 63 -87 57 -59 67 -83 42 -97 -15
-9 -36 -46 -36 -64 0 -10 3 -10 12 -1 7 7 39 12 74 12 44 0 74 6 102 21 38 21
43 21 79 7 25 -10 39 -23 41 -37 5 -30 39 -27 95 9 78 49 124 70 157 70 16 0
30 5 30 10 0 6 18 10 40 10 33 0 40 3 40 20 0 11 7 28 14 37 8 10 24 29 35 43
l19 25 29 -27 c29 -27 54 -32 146 -29 48 1 48 1 45 34 -2 27 -10 35 -45 52
-38 17 -42 23 -45 60 -3 36 -6 40 -32 43 -16 2 -40 -2 -52 -9 -29 -15 -54 2
-54 37 0 42 -56 58 -90 24 -11 -11 -27 -20 -35 -20 -8 0 -15 9 -15 20 0 11 -6
20 -13 20 -7 0 -18 -9 -25 -20 -14 -22 -61 -27 -80 -8 -8 8 -20 5 -46 -15 -27
-21 -46 -27 -85 -27 -48 0 -65 10 -41 25 24 15 -6 25 -74 25 -40 0 -77 5 -83
11 -9 9 -23 9 -57 0 -55 -14 -163 -15 -171 -1 -3 6 -32 10 -63 10 -35 0 -74 8
-101 20 -24 11 -44 20 -45 20 -1 0 -12 -13 -24 -30z"/>
<path d="M11596 2328 c-3 -13 -7 -32 -8 -43 -2 -11 -12 -21 -24 -23 -13 -2
-25 -15 -32 -37 -14 -37 -50 -55 -109 -55 -40 0 -67 12 -104 47 -22 20 -35 24
-75 21 -43 -3 -49 -5 -48 -27 0 -18 10 -28 44 -45 43 -20 45 -23 45 -66 l0
-45 -47 -3 c-27 -2 -48 -8 -48 -13 0 -6 -7 -6 -19 1 -11 5 -32 10 -47 10 -16
0 -39 11 -54 25 l-26 25 -13 -24 c-12 -21 -11 -26 10 -47 13 -13 28 -23 32
-21 11 3 97 -50 97 -60 0 -4 -12 -16 -27 -27 -25 -21 -26 -22 -7 -36 10 -8 30
-17 44 -20 60 -13 75 -21 78 -42 2 -13 -5 -27 -18 -36 -20 -14 -20 -15 17 -30
21 -8 47 -24 57 -36 12 -13 31 -21 51 -21 19 0 39 -8 50 -20 10 -11 15 -20 10
-20 -4 0 -2 -7 5 -15 8 -10 21 -13 34 -9 32 9 83 62 90 92 10 48 44 92 70 92
15 0 26 7 29 20 14 55 111 -19 120 -92 3 -24 9 -57 12 -75 6 -26 3 -33 -15
-43 l-22 -12 27 -14 c18 -9 32 -11 39 -5 7 6 33 8 59 5 37 -3 47 -1 47 11 0 8
-4 15 -10 15 -17 0 -43 61 -31 73 6 6 11 24 11 40 0 26 3 29 25 25 22 -5 25
-2 25 24 0 16 -11 46 -25 66 -29 42 -31 52 -10 52 11 0 15 11 15 39 0 22 -6
44 -15 51 -22 18 -19 33 16 85 21 31 40 48 60 52 54 11 20 20 -59 15 -74 -4
-79 -3 -85 17 -3 14 -13 21 -31 21 -16 0 -32 10 -43 26 -41 59 -88 106 -121
120 -43 18 -41 18 -46 -8z"/>
<path d="M7378 2014 c-34 -10 -52 -23 -63 -43 -17 -34 -66 -77 -97 -87 -13 -3
-31 -15 -41 -25 -21 -22 -48 -24 -85 -5 -18 9 -86 16 -196 20 -93 4 -177 11
-187 17 -10 5 -23 28 -29 50 l-11 42 -34 -33 c-30 -29 -32 -34 -22 -63 25 -76
32 -87 53 -87 37 0 47 -23 27 -59 -10 -17 -26 -34 -35 -37 -13 -4 -18 -16 -18
-39 0 -19 -4 -37 -10 -40 -5 -3 -10 -28 -10 -55 0 -44 3 -51 28 -64 70 -36
136 -140 102 -161 -25 -15 7 -25 84 -25 49 0 87 -5 94 -12 8 -8 14 -5 21 14
16 44 106 61 146 28 22 -18 141 -15 172 5 12 8 40 15 63 15 37 0 39 2 29 19
-17 27 -5 49 33 59 19 4 37 17 43 30 6 13 19 22 31 22 12 0 27 7 34 15 7 9 29
15 51 15 28 0 39 -4 39 -15 0 -12 13 -15 60 -15 54 0 60 2 60 21 0 23 -54 79
-75 79 -8 0 -17 -4 -20 -10 -14 -23 -26 -7 -23 33 2 31 8 44 23 51 24 10 48
53 34 62 -12 7 -11 64 1 64 6 0 10 20 10 45 l0 45 49 0 c55 0 79 17 58 42 -28
34 -92 61 -157 65 -106 6 -160 14 -160 24 0 12 -16 10 -72 -7z"/>
<path d="M10990 2010 c0 -16 -7 -20 -34 -20 -21 0 -36 -6 -40 -15 -3 -10 -19
-15 -42 -15 -23 0 -62 -14 -105 -37 -63 -34 -79 -53 -44 -53 24 0 47 -62 35
-94 -11 -29 -3 -53 28 -88 20 -24 98 -24 124 -2 14 14 20 14 33 4 8 -7 15 -21
15 -32 0 -17 5 -20 38 -16 40 5 82 -8 82 -26 0 -7 25 -27 55 -45 30 -18 59
-39 66 -47 15 -19 126 -18 159 1 14 8 35 14 48 15 20 0 22 5 22 46 0 37 -4 47
-20 51 -13 3 -19 13 -17 27 2 18 -4 21 -38 24 -25 2 -49 12 -65 27 -14 13 -37
27 -52 30 -14 4 -34 15 -44 26 -16 18 -16 19 7 19 23 0 49 16 49 30 0 10 -48
30 -72 30 -22 0 -88 39 -88 52 0 4 14 15 31 24 l32 16 -29 24 c-16 13 -41 23
-56 24 -17 0 -28 5 -28 14 0 13 -20 26 -41 26 -5 0 -9 -9 -9 -20z"/>
<path d="M2650 1951 c-37 -10 -39 -48 -4 -61 19 -7 30 -7 40 1 31 25 4 70 -36
60z"/>
<path d="M3984 1695 c-37 -30 -40 -38 -37 -72 2 -21 5 -55 6 -75 2 -20 6 -40
10 -44 4 -4 7 -15 7 -25 0 -10 7 -25 16 -34 15 -15 18 -15 32 -1 18 17 42 82
42 112 0 11 11 31 25 44 25 23 34 76 19 114 -11 30 -74 20 -120 -19z"/>
<path d="M6120 1535 c-33 -12 -35 -15 -38 -65 -2 -29 0 -60 4 -69 11 -24 13
-71 3 -71 -5 0 -9 -38 -9 -84 0 -47 -4 -88 -10 -91 -14 -8 -13 -48 2 -63 8 -8
8 -15 -3 -28 -11 -13 -11 -18 -1 -21 14 -5 17 -43 2 -43 -5 0 -10 -7 -10 -15
0 -8 8 -15 19 -15 10 0 24 -7 31 -15 7 -8 22 -15 34 -15 14 0 26 -10 34 -30
17 -37 30 -38 34 -4 2 20 11 29 38 38 24 8 34 17 32 28 -1 9 6 19 17 23 10 3
24 19 31 35 7 16 18 35 26 41 25 20 16 55 -21 83 -19 15 -35 36 -35 47 0 11
-7 22 -15 25 -10 4 -15 20 -15 44 0 22 -4 42 -10 45 -14 9 -13 88 2 103 19 19
-10 92 -37 92 -12 0 -30 9 -40 20 -20 22 -17 22 -65 5z"/>
<path d="M7505 1500 c-3 -5 -16 -10 -28 -10 -29 0 -49 -40 -32 -64 7 -9 17
-16 24 -16 14 0 15 -57 1 -65 -6 -4 -8 -15 -5 -26 4 -13 2 -19 -9 -19 -9 0
-16 -8 -16 -17 -1 -10 -11 -40 -24 -68 -13 -27 -22 -53 -19 -57 6 -12 71 -10
78 2 12 19 24 10 21 -17 -2 -16 -11 -29 -24 -34 -21 -8 -37 -27 -30 -35 15
-14 149 66 160 96 4 11 24 28 46 39 21 11 44 27 52 36 26 31 68 45 138 45 69
0 92 10 92 40 0 11 -16 21 -51 30 -32 9 -59 24 -75 43 -17 20 -29 27 -44 22
-15 -5 -18 -3 -14 10 4 9 -1 24 -11 35 -15 16 -31 20 -87 20 -39 0 -68 4 -68
10 0 6 -15 10 -34 10 -19 0 -38 -4 -41 -10z"/>
<path d="M7366 1422 c-2 -4 -1 -14 5 -22 21 -34 10 -48 -38 -54 -117 -13 -170
-23 -191 -34 -19 -11 -23 -10 -28 3 -3 8 -12 15 -20 15 -8 0 -14 4 -14 8 0 5
-19 8 -42 7 -66 -3 -68 -4 -68 -25 0 -25 -37 -47 -53 -31 -16 16 -133 14 -165
-3 -15 -8 -36 -23 -46 -35 -20 -22 -74 -29 -92 -11 -7 7 -16 4 -29 -10 -10
-11 -30 -20 -44 -20 -14 0 -35 -7 -46 -16 -13 -9 -39 -14 -77 -13 -67 2 -78
-4 -55 -29 27 -29 21 -77 -16 -130 -18 -26 -36 -55 -40 -64 -3 -10 -19 -20
-34 -24 -39 -9 -53 -23 -53 -49 0 -13 -5 -25 -12 -27 -19 -7 33 -68 54 -64 13
3 18 -4 20 -33 l3 -36 55 3 c53 3 55 2 56 -22 2 -22 -3 -25 -35 -28 -35 -3
-36 -4 -33 -38 2 -19 8 -39 13 -45 5 -5 67 -8 144 -7 81 1 136 -2 140 -8 3 -5
23 -10 44 -10 26 0 44 -7 57 -21 10 -12 32 -28 47 -36 33 -16 26 -32 -24 -57
-26 -13 -31 -13 -44 0 -8 9 -15 22 -15 29 0 21 -17 27 -42 14 -16 -9 -23 -9
-26 0 -4 12 -84 16 -96 4 -4 -4 -24 -6 -46 -4 -26 2 -47 -4 -63 -15 -23 -17
-23 -20 -8 -46 9 -15 21 -28 27 -28 6 0 20 -10 32 -23 19 -20 22 -34 20 -98
-1 -84 19 -139 52 -139 26 0 33 15 18 39 -11 17 -10 23 4 37 27 28 47 11 41
-34 -5 -36 -3 -40 29 -55 19 -9 40 -27 46 -39 9 -20 11 -17 11 27 1 47 13 75
33 75 4 0 8 -11 8 -25 0 -14 5 -25 10 -25 6 0 10 -9 10 -20 0 -18 7 -20 56
-20 34 0 53 4 49 10 -3 6 -12 10 -20 10 -14 0 -45 52 -45 75 0 7 -18 32 -40
56 -50 55 -56 102 -13 97 17 -2 32 -12 39 -26 21 -42 29 -44 78 -21 53 26 63
52 16 43 -33 -7 -60 9 -60 35 0 21 70 91 90 91 8 0 23 -14 32 -30 10 -18 25
-30 38 -30 18 0 20 6 20 55 0 36 -4 57 -12 59 -7 3 -26 7 -41 10 -15 4 -32 17
-38 29 -12 25 -120 77 -160 77 -15 0 -32 7 -39 15 -11 13 -9 20 14 44 23 24
25 31 13 37 -8 5 -20 19 -26 32 -17 33 1 52 50 52 l38 0 -30 45 c-17 25 -36
45 -43 45 -26 0 -46 36 -46 83 0 25 -4 49 -10 52 -29 18 14 65 65 71 19 2 25
-3 25 -16 0 -11 10 -35 23 -53 12 -19 30 -49 39 -66 9 -17 22 -31 28 -31 6 0
8 5 4 12 -7 11 -9 38 -5 65 1 4 21 -13 46 -37 48 -47 72 -48 37 -1 -23 32 -20
41 15 41 18 0 23 -5 23 -25 0 -28 22 -33 65 -13 34 15 32 22 -11 37 -42 15
-114 77 -114 97 0 10 15 14 59 14 57 0 60 1 63 26 2 15 11 32 20 38 14 9 21 6
33 -12 21 -28 80 -32 73 -4 -4 16 1 17 41 15 93 -7 146 -15 156 -24 15 -14 35
-10 42 9 3 9 12 24 19 33 8 8 15 29 16 45 1 16 5 31 8 34 12 11 30 51 30 66 0
33 -78 72 -94 46z"/>
<path d="M3986 1344 c-9 -8 -21 -12 -27 -9 -6 4 -20 -2 -32 -13 -13 -12 -43
-22 -76 -25 -68 -8 -85 -21 -76 -61 3 -17 9 -51 13 -76 6 -42 9 -45 40 -48 39
-4 40 -11 7 -42 -14 -13 -24 -31 -23 -40 2 -10 -4 -25 -12 -35 -9 -11 -14 -38
-14 -73 1 -45 6 -59 24 -74 32 -26 60 -24 60 6 0 38 22 50 67 35 21 -7 43 -17
49 -21 18 -13 24 3 24 66 1 38 6 68 15 80 10 13 15 43 15 83 0 48 3 63 14 63
20 0 31 21 17 30 -9 5 -9 13 0 34 9 18 9 30 3 34 -11 8 -27 40 -29 58 0 11
-30 44 -39 44 -2 0 -12 -7 -20 -16z"/>
<path d="M2912 1238 c5 -15 60 -47 71 -41 12 7 8 23 -5 23 -7 0 -26 7 -41 15
-19 10 -27 11 -25 3z"/>
<path d="M2698 1223 c-3 -14 -12 -17 -52 -14 -37 2 -47 -1 -44 -11 3 -8 19
-12 42 -11 27 2 36 -2 36 -13 0 -9 9 -18 20 -21 11 -3 20 -12 20 -20 0 -13 3
-13 15 -3 8 7 15 19 15 26 0 8 8 14 18 15 13 0 12 2 -6 9 -12 5 -27 21 -32 35
-11 29 -27 33 -32 8z"/>
<path d="M2346 1101 c-4 -6 -13 -8 -20 -5 -12 5 -43 -22 -35 -30 9 -9 58 7 64
21 7 19 0 29 -9 14z"/>
<path d="M6820 775 c0 -8 4 -15 9 -15 5 0 11 7 15 15 3 9 0 15 -9 15 -8 0 -15
-7 -15 -15z"/>
<path d="M6807 699 c-26 -15 -11 -29 30 -29 35 0 36 0 18 20 -21 23 -23 23
-48 9z"/>
<path d="M6895 650 c3 -5 12 -10 19 -10 8 0 19 -7 27 -16 7 -8 30 -24 51 -35
21 -11 50 -38 65 -61 21 -31 29 -37 31 -24 2 10 -9 31 -24 47 -15 16 -24 29
-20 29 18 0 -18 30 -64 54 -50 26 -97 35 -85 16z"/>
<path d="M4607 546 c-9 -7 -17 -21 -17 -31 0 -10 -7 -26 -16 -36 -14 -15 -13
-19 13 -38 15 -11 33 -24 38 -28 6 -5 15 -8 20 -9 10 0 78 -28 105 -43 8 -4
24 -24 35 -45 17 -31 24 -36 47 -31 14 4 29 1 33 -4 3 -6 17 -11 30 -11 40 0
56 -11 72 -52 18 -45 47 -65 68 -48 10 8 19 8 34 0 19 -9 21 -8 21 13 0 18 8
28 30 37 33 13 41 40 13 40 -28 0 -29 70 -2 98 14 15 19 33 17 55 -2 25 2 34
19 42 20 8 43 43 43 65 0 12 -83 0 -99 -16 -13 -11 -18 -11 -33 3 -16 15 -20
15 -35 1 -10 -9 -36 -18 -58 -22 -22 -3 -57 -8 -78 -12 -41 -7 -78 5 -141 44
-37 23 -49 24 -103 7 -17 -6 -23 -3 -23 8 0 23 -13 27 -33 13z"/>
</g>
</svg>
